<?xml version="1.0" encoding="UTF-8" standalone="no"?>
<!DOCTYPE svg PUBLIC "-//W3C//DTD SVG 1.1//EN"
 "http://www.w3.org/Graphics/SVG/1.1/DTD/svg11.dtd">
<!-- Generated by graphviz version 2.26.3 (20100126.1600)
 -->
<!-- Title: controllers_diagram Pages: 1 -->
<svg width="640pt" height="689pt"
 viewBox="0.00 0.00 640.00 689.00" xmlns="http://www.w3.org/2000/svg" xmlns:xlink="http://www.w3.org/1999/xlink">
<g id="graph1" class="graph" transform="scale(1 1) rotate(0) translate(4 685)">
<title>controllers_diagram</title>
<polygon fill="none" stroke="none" points="-4,5 -4,-685 637,-685 637,5 -4,5"/>
<!-- _diagram_info -->
<g id="node1" class="node"><title>_diagram_info</title>
<text text-anchor="start" x="389" y="-213.3" font-family="Times Roman,serif" font-size="13.00">Controllers diagram</text>
<text text-anchor="start" x="389" y="-197.3" font-family="Times Roman,serif" font-size="13.00">Date: Aug 31 2015 &#45; 10:10</text>
<text text-anchor="start" x="389" y="-181.3" font-family="Times Roman,serif" font-size="13.00">Migration version: 20150708151858</text>
<text text-anchor="start" x="389" y="-165.3" font-family="Times Roman,serif" font-size="13.00">Generated by RailRoady 1.3.1</text>
<text text-anchor="start" x="389" y="-149.3" font-family="Times Roman,serif" font-size="13.00">http://railroady.prestonlee.com</text>
</g>
<!-- VisitorsController -->
<g id="node2" class="node"><title>VisitorsController</title>
<polyline fill="none" stroke="black" points="393,-1.5 506,-1.5 "/>
<path fill="none" stroke="black" d="M506,-1.5C512,-1.5 518,-7.5 518,-13.5"/>
<polyline fill="none" stroke="black" points="518,-13.5 518,-87.5 "/>
<path fill="none" stroke="black" d="M518,-87.5C518,-93.5 512,-99.5 506,-99.5"/>
<polyline fill="none" stroke="black" points="506,-99.5 393,-99.5 "/>
<path fill="none" stroke="black" d="M393,-99.5C387,-99.5 381,-93.5 381,-87.5"/>
<polyline fill="none" stroke="black" points="381,-87.5 381,-13.5 "/>
<path fill="none" stroke="black" d="M381,-13.5C381,-7.5 387,-1.5 393,-1.5"/>
<text text-anchor="middle" x="449.5" y="-82.9" font-family="Times Roman,serif" font-size="14.00">VisitorsController</text>
<polyline fill="none" stroke="black" points="381,-74.5 518,-74.5 "/>
<polyline fill="none" stroke="black" points="381,-50.5 518,-50.5 "/>
<polyline fill="none" stroke="black" points="381,-26.5 518,-26.5 "/>
<text text-anchor="start" x="389" y="-9.9" font-family="Times Roman,serif" font-size="14.00">_layout</text>
</g>
<!-- ApplicationController -->
<g id="node3" class="node"><title>ApplicationController</title>
<polyline fill="none" stroke="black" points="393,-261.5 530,-261.5 "/>
<path fill="none" stroke="black" d="M530,-261.5C536,-261.5 542,-267.5 542,-273.5"/>
<polyline fill="none" stroke="black" points="542,-273.5 542,-432.5 "/>
<path fill="none" stroke="black" d="M542,-432.5C542,-438.5 536,-444.5 530,-444.5"/>
<polyline fill="none" stroke="black" points="530,-444.5 393,-444.5 "/>
<path fill="none" stroke="black" d="M393,-444.5C387,-444.5 381,-438.5 381,-432.5"/>
<polyline fill="none" stroke="black" points="381,-432.5 381,-273.5 "/>
<path fill="none" stroke="black" d="M381,-273.5C381,-267.5 387,-261.5 393,-261.5"/>
<text text-anchor="middle" x="461.5" y="-427.9" font-family="Times Roman,serif" font-size="14.00">ApplicationController</text>
<polyline fill="none" stroke="black" points="381,-419.5 542,-419.5 "/>
<polyline fill="none" stroke="black" points="381,-395.5 542,-395.5 "/>
<polyline fill="none" stroke="black" points="381,-371.5 542,-371.5 "/>
<text text-anchor="start" x="389" y="-354.9" font-family="Times Roman,serif" font-size="14.00">_layout</text>
<text text-anchor="start" x="389" y="-337.9" font-family="Times Roman,serif" font-size="14.00">authenticate_user!</text>
<text text-anchor="start" x="389" y="-320.9" font-family="Times Roman,serif" font-size="14.00">authorize_admin!</text>
<text text-anchor="start" x="389" y="-303.9" font-family="Times Roman,serif" font-size="14.00">correct_user?</text>
<text text-anchor="start" x="389" y="-286.9" font-family="Times Roman,serif" font-size="14.00">current_user</text>
<text text-anchor="start" x="389" y="-269.9" font-family="Times Roman,serif" font-size="14.00">user_signed_in?</text>
</g>
<!-- VmsController -->
<g id="node4" class="node"><title>VmsController</title>
<polyline fill="none" stroke="black" points="233,-421.5 324,-421.5 "/>
<path fill="none" stroke="black" d="M324,-421.5C330,-421.5 336,-427.5 336,-433.5"/>
<polyline fill="none" stroke="black" points="336,-433.5 336,-644.5 "/>
<path fill="none" stroke="black" d="M336,-644.5C336,-650.5 330,-656.5 324,-656.5"/>
<polyline fill="none" stroke="black" points="324,-656.5 233,-656.5 "/>
<path fill="none" stroke="black" d="M233,-656.5C227,-656.5 221,-650.5 221,-644.5"/>
<polyline fill="none" stroke="black" points="221,-644.5 221,-433.5 "/>
<path fill="none" stroke="black" d="M221,-433.5C221,-427.5 227,-421.5 233,-421.5"/>
<text text-anchor="middle" x="278.5" y="-639.9" font-family="Times Roman,serif" font-size="14.00">VmsController</text>
<polyline fill="none" stroke="black" points="221,-631.5 336,-631.5 "/>
<text text-anchor="start" x="229" y="-614.9" font-family="Times Roman,serif" font-size="14.00">create</text>
<text text-anchor="start" x="229" y="-597.9" font-family="Times Roman,serif" font-size="14.00">destroy</text>
<text text-anchor="start" x="229" y="-580.9" font-family="Times Roman,serif" font-size="14.00">edit</text>
<text text-anchor="start" x="229" y="-563.9" font-family="Times Roman,serif" font-size="14.00">index</text>
<text text-anchor="start" x="229" y="-546.9" font-family="Times Roman,serif" font-size="14.00">new</text>
<text text-anchor="start" x="229" y="-529.9" font-family="Times Roman,serif" font-size="14.00">show</text>
<text text-anchor="start" x="229" y="-512.9" font-family="Times Roman,serif" font-size="14.00">update</text>
<polyline fill="none" stroke="black" points="221,-504.5 336,-504.5 "/>
<polyline fill="none" stroke="black" points="221,-480.5 336,-480.5 "/>
<text text-anchor="start" x="229" y="-463.9" font-family="Times Roman,serif" font-size="14.00">_layout</text>
<text text-anchor="start" x="229" y="-446.9" font-family="Times Roman,serif" font-size="14.00">set_vm</text>
<text text-anchor="start" x="229" y="-429.9" font-family="Times Roman,serif" font-size="14.00">vm_params</text>
</g>
<!-- AppsController -->
<g id="node5" class="node"><title>AppsController</title>
<polyline fill="none" stroke="black" points="73,-461.5 168,-461.5 "/>
<path fill="none" stroke="black" d="M168,-461.5C174,-461.5 180,-467.5 180,-473.5"/>
<polyline fill="none" stroke="black" points="180,-473.5 180,-667.5 "/>
<path fill="none" stroke="black" d="M180,-667.5C180,-673.5 174,-679.5 168,-679.5"/>
<polyline fill="none" stroke="black" points="168,-679.5 73,-679.5 "/>
<path fill="none" stroke="black" d="M73,-679.5C67,-679.5 61,-673.5 61,-667.5"/>
<polyline fill="none" stroke="black" points="61,-667.5 61,-473.5 "/>
<path fill="none" stroke="black" d="M61,-473.5C61,-467.5 67,-461.5 73,-461.5"/>
<text text-anchor="middle" x="120.5" y="-662.9" font-family="Times Roman,serif" font-size="14.00">AppsController</text>
<polyline fill="none" stroke="black" points="61,-654.5 180,-654.5 "/>
<text text-anchor="start" x="69" y="-637.9" font-family="Times Roman,serif" font-size="14.00">create</text>
<text text-anchor="start" x="69" y="-620.9" font-family="Times Roman,serif" font-size="14.00">destroy</text>
<text text-anchor="start" x="69" y="-603.9" font-family="Times Roman,serif" font-size="14.00">edit</text>
<text text-anchor="start" x="69" y="-586.9" font-family="Times Roman,serif" font-size="14.00">index</text>
<text text-anchor="start" x="69" y="-569.9" font-family="Times Roman,serif" font-size="14.00">new</text>
<text text-anchor="start" x="69" y="-552.9" font-family="Times Roman,serif" font-size="14.00">show</text>
<text text-anchor="start" x="69" y="-535.9" font-family="Times Roman,serif" font-size="14.00">update</text>
<polyline fill="none" stroke="black" points="61,-527.5 180,-527.5 "/>
<polyline fill="none" stroke="black" points="61,-503.5 180,-503.5 "/>
<text text-anchor="start" x="69" y="-486.9" font-family="Times Roman,serif" font-size="14.00">_layout</text>
<text text-anchor="start" x="69" y="-469.9" font-family="Times Roman,serif" font-size="14.00">app_params</text>
</g>
<!-- SessionsController -->
<g id="node6" class="node"><title>SessionsController</title>
<polyline fill="none" stroke="black" points="493,-481.5 613,-481.5 "/>
<path fill="none" stroke="black" d="M613,-481.5C619,-481.5 625,-487.5 625,-493.5"/>
<polyline fill="none" stroke="black" points="625,-493.5 625,-619.5 "/>
<path fill="none" stroke="black" d="M625,-619.5C625,-625.5 619,-631.5 613,-631.5"/>
<polyline fill="none" stroke="black" points="613,-631.5 493,-631.5 "/>
<path fill="none" stroke="black" d="M493,-631.5C487,-631.5 481,-625.5 481,-619.5"/>
<polyline fill="none" stroke="black" points="481,-619.5 481,-493.5 "/>
<path fill="none" stroke="black" d="M481,-493.5C481,-487.5 487,-481.5 493,-481.5"/>
<text text-anchor="middle" x="553" y="-614.9" font-family="Times Roman,serif" font-size="14.00">SessionsController</text>
<polyline fill="none" stroke="black" points="481,-606.5 625,-606.5 "/>
<text text-anchor="start" x="489" y="-589.9" font-family="Times Roman,serif" font-size="14.00">create</text>
<text text-anchor="start" x="489" y="-572.9" font-family="Times Roman,serif" font-size="14.00">destroy</text>
<text text-anchor="start" x="489" y="-555.9" font-family="Times Roman,serif" font-size="14.00">failure</text>
<text text-anchor="start" x="489" y="-538.9" font-family="Times Roman,serif" font-size="14.00">new</text>
<polyline fill="none" stroke="black" points="481,-530.5 625,-530.5 "/>
<polyline fill="none" stroke="black" points="481,-506.5 625,-506.5 "/>
<text text-anchor="start" x="489" y="-489.9" font-family="Times Roman,serif" font-size="14.00">_layout</text>
</g>
<!-- ServiceInAppsController -->
<g id="node7" class="node"><title>ServiceInAppsController</title>
<polyline fill="none" stroke="black" points="173,-101.5 331,-101.5 "/>
<path fill="none" stroke="black" d="M331,-101.5C337,-101.5 343,-107.5 343,-113.5"/>
<polyline fill="none" stroke="black" points="343,-113.5 343,-374.5 "/>
<path fill="none" stroke="black" d="M343,-374.5C343,-380.5 337,-386.5 331,-386.5"/>
<polyline fill="none" stroke="black" points="331,-386.5 173,-386.5 "/>
<path fill="none" stroke="black" d="M173,-386.5C167,-386.5 161,-380.5 161,-374.5"/>
<polyline fill="none" stroke="black" points="161,-374.5 161,-113.5 "/>
<path fill="none" stroke="black" d="M161,-113.5C161,-107.5 167,-101.5 173,-101.5"/>
<text text-anchor="middle" x="252" y="-369.9" font-family="Times Roman,serif" font-size="14.00">ServiceInAppsController</text>
<polyline fill="none" stroke="black" points="161,-361.5 343,-361.5 "/>
<text text-anchor="start" x="169" y="-328.9" font-family="Times Roman,serif" font-size="14.00">add_vm</text>
<text text-anchor="start" x="169" y="-311.9" font-family="Times Roman,serif" font-size="14.00">create</text>
<text text-anchor="start" x="169" y="-294.9" font-family="Times Roman,serif" font-size="14.00">destroy</text>
<text text-anchor="start" x="169" y="-277.9" font-family="Times Roman,serif" font-size="14.00">edit</text>
<text text-anchor="start" x="169" y="-260.9" font-family="Times Roman,serif" font-size="14.00">index</text>
<text text-anchor="start" x="169" y="-243.9" font-family="Times Roman,serif" font-size="14.00">new</text>
<text text-anchor="start" x="169" y="-226.9" font-family="Times Roman,serif" font-size="14.00">show</text>
<text text-anchor="start" x="169" y="-209.9" font-family="Times Roman,serif" font-size="14.00">update</text>
<text text-anchor="start" x="169" y="-192.9" font-family="Times Roman,serif" font-size="14.00">vm_installs</text>
<polyline fill="none" stroke="black" points="161,-184.5 343,-184.5 "/>
<polyline fill="none" stroke="black" points="161,-160.5 343,-160.5 "/>
<text text-anchor="start" x="169" y="-143.9" font-family="Times Roman,serif" font-size="14.00">_layout</text>
<text text-anchor="start" x="169" y="-126.9" font-family="Times Roman,serif" font-size="14.00">serIN_params</text>
<text text-anchor="start" x="169" y="-109.9" font-family="Times Roman,serif" font-size="14.00">set_app</text>
</g>
<!-- UsersController -->
<g id="node8" class="node"><title>UsersController</title>
<polyline fill="none" stroke="black" points="13,-261.5 113,-261.5 "/>
<path fill="none" stroke="black" d="M113,-261.5C119,-261.5 125,-267.5 125,-273.5"/>
<polyline fill="none" stroke="black" points="125,-273.5 125,-416.5 "/>
<path fill="none" stroke="black" d="M125,-416.5C125,-422.5 119,-428.5 113,-428.5"/>
<polyline fill="none" stroke="black" points="113,-428.5 13,-428.5 "/>
<path fill="none" stroke="black" d="M13,-428.5C7,-428.5 1,-422.5 1,-416.5"/>
<polyline fill="none" stroke="black" points="1,-416.5 1,-273.5 "/>
<path fill="none" stroke="black" d="M1,-273.5C1,-267.5 7,-261.5 13,-261.5"/>
<text text-anchor="middle" x="63" y="-411.9" font-family="Times Roman,serif" font-size="14.00">UsersController</text>
<polyline fill="none" stroke="black" points="1,-403.5 125,-403.5 "/>
<text text-anchor="start" x="9" y="-386.9" font-family="Times Roman,serif" font-size="14.00">dsi</text>
<text text-anchor="start" x="9" y="-369.9" font-family="Times Roman,serif" font-size="14.00">index</text>
<text text-anchor="start" x="9" y="-352.9" font-family="Times Roman,serif" font-size="14.00">mesapps</text>
<text text-anchor="start" x="9" y="-335.9" font-family="Times Roman,serif" font-size="14.00">show</text>
<polyline fill="none" stroke="black" points="1,-327.5 125,-327.5 "/>
<polyline fill="none" stroke="black" points="1,-303.5 125,-303.5 "/>
<text text-anchor="start" x="9" y="-286.9" font-family="Times Roman,serif" font-size="14.00">_layout</text>
<text text-anchor="start" x="9" y="-269.9" font-family="Times Roman,serif" font-size="14.00">user_param</text>
</g>
</g>
</svg>
