<?xml version="1.0" encoding="UTF-8" standalone="no"?>
<!DOCTYPE svg PUBLIC "-//W3C//DTD SVG 1.1//EN"
 "http://www.w3.org/Graphics/SVG/1.1/DTD/svg11.dtd">
<!-- Generated by graphviz version 2.26.3 (20100126.1600)
 -->
<!-- Title: controllers_diagram Pages: 1 -->
<svg width="743pt" height="855pt"
 viewBox="0.00 0.00 743.00 855.00" xmlns="http://www.w3.org/2000/svg" xmlns:xlink="http://www.w3.org/1999/xlink">
<g id="graph1" class="graph" transform="scale(1 1) rotate(0) translate(4 851)">
<title>controllers_diagram</title>
<polygon fill="none" stroke="none" points="-4,5 -4,-851 740,-851 740,5 -4,5"/>
<!-- _diagram_info -->
<g id="node1" class="node"><title>_diagram_info</title>
<text text-anchor="start" x="492" y="-199.3" font-family="Times Roman,serif" font-size="13.00">Controllers diagram</text>
<text text-anchor="start" x="492" y="-183.3" font-family="Times Roman,serif" font-size="13.00">Date: Sep 16 2015 &#45; 08:53</text>
<text text-anchor="start" x="492" y="-167.3" font-family="Times Roman,serif" font-size="13.00">Migration version: 20150914092513</text>
<text text-anchor="start" x="492" y="-151.3" font-family="Times Roman,serif" font-size="13.00">Generated by RailRoady 1.3.1</text>
<text text-anchor="start" x="492" y="-135.3" font-family="Times Roman,serif" font-size="13.00">http://railroady.prestonlee.com</text>
</g>
<!-- VisitorsController -->
<g id="node2" class="node"><title>VisitorsController</title>
<polyline fill="none" stroke="black" points="13,-22.5 126,-22.5 "/>
<path fill="none" stroke="black" d="M126,-22.5C132,-22.5 138,-28.5 138,-34.5"/>
<polyline fill="none" stroke="black" points="138,-34.5 138,-108.5 "/>
<path fill="none" stroke="black" d="M138,-108.5C138,-114.5 132,-120.5 126,-120.5"/>
<polyline fill="none" stroke="black" points="126,-120.5 13,-120.5 "/>
<path fill="none" stroke="black" d="M13,-120.5C7,-120.5 1,-114.5 1,-108.5"/>
<polyline fill="none" stroke="black" points="1,-108.5 1,-34.5 "/>
<path fill="none" stroke="black" d="M1,-34.5C1,-28.5 7,-22.5 13,-22.5"/>
<text text-anchor="middle" x="69.5" y="-103.9" font-family="Times Roman,serif" font-size="14.00">VisitorsController</text>
<polyline fill="none" stroke="black" points="1,-95.5 138,-95.5 "/>
<polyline fill="none" stroke="black" points="1,-71.5 138,-71.5 "/>
<polyline fill="none" stroke="black" points="1,-47.5 138,-47.5 "/>
<text text-anchor="start" x="9" y="-30.9" font-family="Times Roman,serif" font-size="14.00">_layout</text>
</g>
<!-- ApplicationController -->
<g id="node3" class="node"><title>ApplicationController</title>
<polyline fill="none" stroke="black" points="496,-253.5 691,-253.5 "/>
<path fill="none" stroke="black" d="M691,-253.5C697,-253.5 703,-259.5 703,-265.5"/>
<polyline fill="none" stroke="black" points="703,-265.5 703,-459.5 "/>
<path fill="none" stroke="black" d="M703,-459.5C703,-465.5 697,-471.5 691,-471.5"/>
<polyline fill="none" stroke="black" points="691,-471.5 496,-471.5 "/>
<path fill="none" stroke="black" d="M496,-471.5C490,-471.5 484,-465.5 484,-459.5"/>
<polyline fill="none" stroke="black" points="484,-459.5 484,-265.5 "/>
<path fill="none" stroke="black" d="M484,-265.5C484,-259.5 490,-253.5 496,-253.5"/>
<text text-anchor="middle" x="593.5" y="-454.9" font-family="Times Roman,serif" font-size="14.00">ApplicationController</text>
<polyline fill="none" stroke="black" points="484,-446.5 703,-446.5 "/>
<polyline fill="none" stroke="black" points="484,-422.5 703,-422.5 "/>
<text text-anchor="start" x="492" y="-405.9" font-family="Times Roman,serif" font-size="14.00">authenticate_user!</text>
<text text-anchor="start" x="492" y="-388.9" font-family="Times Roman,serif" font-size="14.00">authorize_admin!</text>
<text text-anchor="start" x="492" y="-371.9" font-family="Times Roman,serif" font-size="14.00">correct_user?</text>
<text text-anchor="start" x="492" y="-354.9" font-family="Times Roman,serif" font-size="14.00">current_ability</text>
<text text-anchor="start" x="492" y="-337.9" font-family="Times Roman,serif" font-size="14.00">current_user</text>
<text text-anchor="start" x="492" y="-320.9" font-family="Times Roman,serif" font-size="14.00">ldap</text>
<text text-anchor="start" x="492" y="-303.9" font-family="Times Roman,serif" font-size="14.00">load_and_authorize_resource</text>
<text text-anchor="start" x="492" y="-286.9" font-family="Times Roman,serif" font-size="14.00">user_signed_in?</text>
<polyline fill="none" stroke="black" points="484,-278.5 703,-278.5 "/>
<text text-anchor="start" x="492" y="-261.9" font-family="Times Roman,serif" font-size="14.00">_layout</text>
</g>
<!-- VmsController -->
<g id="node4" class="node"><title>VmsController</title>
<polyline fill="none" stroke="black" points="139,-610.5 230,-610.5 "/>
<path fill="none" stroke="black" d="M230,-610.5C236,-610.5 242,-616.5 242,-622.5"/>
<polyline fill="none" stroke="black" points="242,-622.5 242,-833.5 "/>
<path fill="none" stroke="black" d="M242,-833.5C242,-839.5 236,-845.5 230,-845.5"/>
<polyline fill="none" stroke="black" points="230,-845.5 139,-845.5 "/>
<path fill="none" stroke="black" d="M139,-845.5C133,-845.5 127,-839.5 127,-833.5"/>
<polyline fill="none" stroke="black" points="127,-833.5 127,-622.5 "/>
<path fill="none" stroke="black" d="M127,-622.5C127,-616.5 133,-610.5 139,-610.5"/>
<text text-anchor="middle" x="184.5" y="-828.9" font-family="Times Roman,serif" font-size="14.00">VmsController</text>
<polyline fill="none" stroke="black" points="127,-820.5 242,-820.5 "/>
<text text-anchor="start" x="135" y="-803.9" font-family="Times Roman,serif" font-size="14.00">create</text>
<text text-anchor="start" x="135" y="-786.9" font-family="Times Roman,serif" font-size="14.00">destroy</text>
<text text-anchor="start" x="135" y="-769.9" font-family="Times Roman,serif" font-size="14.00">edit</text>
<text text-anchor="start" x="135" y="-752.9" font-family="Times Roman,serif" font-size="14.00">index</text>
<text text-anchor="start" x="135" y="-735.9" font-family="Times Roman,serif" font-size="14.00">new</text>
<text text-anchor="start" x="135" y="-718.9" font-family="Times Roman,serif" font-size="14.00">show</text>
<text text-anchor="start" x="135" y="-701.9" font-family="Times Roman,serif" font-size="14.00">update</text>
<polyline fill="none" stroke="black" points="127,-693.5 242,-693.5 "/>
<polyline fill="none" stroke="black" points="127,-669.5 242,-669.5 "/>
<text text-anchor="start" x="135" y="-652.9" font-family="Times Roman,serif" font-size="14.00">_layout</text>
<text text-anchor="start" x="135" y="-635.9" font-family="Times Roman,serif" font-size="14.00">set_vm</text>
<text text-anchor="start" x="135" y="-618.9" font-family="Times Roman,serif" font-size="14.00">vm_params</text>
</g>
<!-- AppsController -->
<g id="node5" class="node"><title>AppsController</title>
<polyline fill="none" stroke="black" points="97,-358.5 192,-358.5 "/>
<path fill="none" stroke="black" d="M192,-358.5C198,-358.5 204,-364.5 204,-370.5"/>
<polyline fill="none" stroke="black" points="204,-370.5 204,-564.5 "/>
<path fill="none" stroke="black" d="M204,-564.5C204,-570.5 198,-576.5 192,-576.5"/>
<polyline fill="none" stroke="black" points="192,-576.5 97,-576.5 "/>
<path fill="none" stroke="black" d="M97,-576.5C91,-576.5 85,-570.5 85,-564.5"/>
<polyline fill="none" stroke="black" points="85,-564.5 85,-370.5 "/>
<path fill="none" stroke="black" d="M85,-370.5C85,-364.5 91,-358.5 97,-358.5"/>
<text text-anchor="middle" x="144.5" y="-559.9" font-family="Times Roman,serif" font-size="14.00">AppsController</text>
<polyline fill="none" stroke="black" points="85,-551.5 204,-551.5 "/>
<text text-anchor="start" x="93" y="-534.9" font-family="Times Roman,serif" font-size="14.00">create</text>
<text text-anchor="start" x="93" y="-517.9" font-family="Times Roman,serif" font-size="14.00">destroy</text>
<text text-anchor="start" x="93" y="-500.9" font-family="Times Roman,serif" font-size="14.00">edit</text>
<text text-anchor="start" x="93" y="-483.9" font-family="Times Roman,serif" font-size="14.00">index</text>
<text text-anchor="start" x="93" y="-466.9" font-family="Times Roman,serif" font-size="14.00">new</text>
<text text-anchor="start" x="93" y="-449.9" font-family="Times Roman,serif" font-size="14.00">show</text>
<text text-anchor="start" x="93" y="-432.9" font-family="Times Roman,serif" font-size="14.00">update</text>
<polyline fill="none" stroke="black" points="85,-424.5 204,-424.5 "/>
<polyline fill="none" stroke="black" points="85,-400.5 204,-400.5 "/>
<text text-anchor="start" x="93" y="-383.9" font-family="Times Roman,serif" font-size="14.00">_layout</text>
<text text-anchor="start" x="93" y="-366.9" font-family="Times Roman,serif" font-size="14.00">app_params</text>
</g>
<!-- GroupeUsersController -->
<g id="node6" class="node"><title>GroupeUsersController</title>
<polyline fill="none" stroke="black" points="286,-568.5 437,-568.5 "/>
<path fill="none" stroke="black" d="M437,-568.5C443,-568.5 449,-574.5 449,-580.5"/>
<polyline fill="none" stroke="black" points="449,-580.5 449,-774.5 "/>
<path fill="none" stroke="black" d="M449,-774.5C449,-780.5 443,-786.5 437,-786.5"/>
<polyline fill="none" stroke="black" points="437,-786.5 286,-786.5 "/>
<path fill="none" stroke="black" d="M286,-786.5C280,-786.5 274,-780.5 274,-774.5"/>
<polyline fill="none" stroke="black" points="274,-774.5 274,-580.5 "/>
<path fill="none" stroke="black" d="M274,-580.5C274,-574.5 280,-568.5 286,-568.5"/>
<text text-anchor="middle" x="361.5" y="-769.9" font-family="Times Roman,serif" font-size="14.00">GroupeUsersController</text>
<polyline fill="none" stroke="black" points="274,-761.5 449,-761.5 "/>
<text text-anchor="start" x="282" y="-744.9" font-family="Times Roman,serif" font-size="14.00">create</text>
<text text-anchor="start" x="282" y="-727.9" font-family="Times Roman,serif" font-size="14.00">destroy</text>
<text text-anchor="start" x="282" y="-710.9" font-family="Times Roman,serif" font-size="14.00">edit</text>
<text text-anchor="start" x="282" y="-693.9" font-family="Times Roman,serif" font-size="14.00">index</text>
<text text-anchor="start" x="282" y="-676.9" font-family="Times Roman,serif" font-size="14.00">new</text>
<text text-anchor="start" x="282" y="-659.9" font-family="Times Roman,serif" font-size="14.00">show</text>
<text text-anchor="start" x="282" y="-642.9" font-family="Times Roman,serif" font-size="14.00">update</text>
<polyline fill="none" stroke="black" points="274,-634.5 449,-634.5 "/>
<polyline fill="none" stroke="black" points="274,-610.5 449,-610.5 "/>
<text text-anchor="start" x="282" y="-593.9" font-family="Times Roman,serif" font-size="14.00">_layout</text>
<text text-anchor="start" x="282" y="-576.9" font-family="Times Roman,serif" font-size="14.00">groupe_user_param</text>
</g>
<!-- SessionsController -->
<g id="node7" class="node"><title>SessionsController</title>
<polyline fill="none" stroke="black" points="76,-169.5 196,-169.5 "/>
<path fill="none" stroke="black" d="M196,-169.5C202,-169.5 208,-175.5 208,-181.5"/>
<polyline fill="none" stroke="black" points="208,-181.5 208,-307.5 "/>
<path fill="none" stroke="black" d="M208,-307.5C208,-313.5 202,-319.5 196,-319.5"/>
<polyline fill="none" stroke="black" points="196,-319.5 76,-319.5 "/>
<path fill="none" stroke="black" d="M76,-319.5C70,-319.5 64,-313.5 64,-307.5"/>
<polyline fill="none" stroke="black" points="64,-307.5 64,-181.5 "/>
<path fill="none" stroke="black" d="M64,-181.5C64,-175.5 70,-169.5 76,-169.5"/>
<text text-anchor="middle" x="136" y="-302.9" font-family="Times Roman,serif" font-size="14.00">SessionsController</text>
<polyline fill="none" stroke="black" points="64,-294.5 208,-294.5 "/>
<text text-anchor="start" x="72" y="-277.9" font-family="Times Roman,serif" font-size="14.00">create</text>
<text text-anchor="start" x="72" y="-260.9" font-family="Times Roman,serif" font-size="14.00">destroy</text>
<text text-anchor="start" x="72" y="-243.9" font-family="Times Roman,serif" font-size="14.00">failure</text>
<text text-anchor="start" x="72" y="-226.9" font-family="Times Roman,serif" font-size="14.00">new</text>
<polyline fill="none" stroke="black" points="64,-218.5 208,-218.5 "/>
<polyline fill="none" stroke="black" points="64,-194.5 208,-194.5 "/>
<text text-anchor="start" x="72" y="-177.9" font-family="Times Roman,serif" font-size="14.00">_layout</text>
</g>
<!-- ServiceInAppsController -->
<g id="node8" class="node"><title>ServiceInAppsController</title>
<polyline fill="none" stroke="black" points="265,-232.5 423,-232.5 "/>
<path fill="none" stroke="black" d="M423,-232.5C429,-232.5 435,-238.5 435,-244.5"/>
<polyline fill="none" stroke="black" points="435,-244.5 435,-506.5 "/>
<path fill="none" stroke="black" d="M435,-506.5C435,-512.5 429,-518.5 423,-518.5"/>
<polyline fill="none" stroke="black" points="423,-518.5 265,-518.5 "/>
<path fill="none" stroke="black" d="M265,-518.5C259,-518.5 253,-512.5 253,-506.5"/>
<polyline fill="none" stroke="black" points="253,-506.5 253,-244.5 "/>
<path fill="none" stroke="black" d="M253,-244.5C253,-238.5 259,-232.5 265,-232.5"/>
<text text-anchor="middle" x="344" y="-501.9" font-family="Times Roman,serif" font-size="14.00">ServiceInAppsController</text>
<polyline fill="none" stroke="black" points="253,-493.5 435,-493.5 "/>
<text text-anchor="start" x="261" y="-476.9" font-family="Times Roman,serif" font-size="14.00">add_vm</text>
<text text-anchor="start" x="261" y="-459.9" font-family="Times Roman,serif" font-size="14.00">create</text>
<text text-anchor="start" x="261" y="-442.9" font-family="Times Roman,serif" font-size="14.00">destroy</text>
<text text-anchor="start" x="261" y="-425.9" font-family="Times Roman,serif" font-size="14.00">edit</text>
<text text-anchor="start" x="261" y="-408.9" font-family="Times Roman,serif" font-size="14.00">index</text>
<text text-anchor="start" x="261" y="-391.9" font-family="Times Roman,serif" font-size="14.00">new</text>
<text text-anchor="start" x="261" y="-374.9" font-family="Times Roman,serif" font-size="14.00">service_ins</text>
<text text-anchor="start" x="261" y="-357.9" font-family="Times Roman,serif" font-size="14.00">show</text>
<text text-anchor="start" x="261" y="-340.9" font-family="Times Roman,serif" font-size="14.00">update</text>
<text text-anchor="start" x="261" y="-323.9" font-family="Times Roman,serif" font-size="14.00">vm_installs</text>
<polyline fill="none" stroke="black" points="253,-315.5 435,-315.5 "/>
<polyline fill="none" stroke="black" points="253,-291.5 435,-291.5 "/>
<text text-anchor="start" x="261" y="-274.9" font-family="Times Roman,serif" font-size="14.00">_layout</text>
<text text-anchor="start" x="261" y="-257.9" font-family="Times Roman,serif" font-size="14.00">serIN_params</text>
<text text-anchor="start" x="261" y="-240.9" font-family="Times Roman,serif" font-size="14.00">set_app</text>
</g>
<!-- UsersController -->
<g id="node9" class="node"><title>UsersController</title>
<polyline fill="none" stroke="black" points="265,-1.5 365,-1.5 "/>
<path fill="none" stroke="black" d="M365,-1.5C371,-1.5 377,-7.5 377,-13.5"/>
<polyline fill="none" stroke="black" points="377,-13.5 377,-173.5 "/>
<path fill="none" stroke="black" d="M377,-173.5C377,-179.5 371,-185.5 365,-185.5"/>
<polyline fill="none" stroke="black" points="365,-185.5 265,-185.5 "/>
<path fill="none" stroke="black" d="M265,-185.5C259,-185.5 253,-179.5 253,-173.5"/>
<polyline fill="none" stroke="black" points="253,-173.5 253,-13.5 "/>
<path fill="none" stroke="black" d="M253,-13.5C253,-7.5 259,-1.5 265,-1.5"/>
<text text-anchor="middle" x="315" y="-168.9" font-family="Times Roman,serif" font-size="14.00">UsersController</text>
<polyline fill="none" stroke="black" points="253,-160.5 377,-160.5 "/>
<text text-anchor="start" x="261" y="-143.9" font-family="Times Roman,serif" font-size="14.00">admin</text>
<text text-anchor="start" x="261" y="-126.9" font-family="Times Roman,serif" font-size="14.00">dsi</text>
<text text-anchor="start" x="261" y="-109.9" font-family="Times Roman,serif" font-size="14.00">index</text>
<text text-anchor="start" x="261" y="-92.9" font-family="Times Roman,serif" font-size="14.00">mesapps</text>
<text text-anchor="start" x="261" y="-75.9" font-family="Times Roman,serif" font-size="14.00">show</text>
<polyline fill="none" stroke="black" points="253,-67.5 377,-67.5 "/>
<polyline fill="none" stroke="black" points="253,-43.5 377,-43.5 "/>
<text text-anchor="start" x="261" y="-26.9" font-family="Times Roman,serif" font-size="14.00">_layout</text>
<text text-anchor="start" x="261" y="-9.9" font-family="Times Roman,serif" font-size="14.00">user_param</text>
</g>
<!-- UserGroupeUsersController -->
<g id="node10" class="node"><title>UserGroupeUsersController</title>
<polyline fill="none" stroke="black" points="496,-505.5 678,-505.5 "/>
<path fill="none" stroke="black" d="M678,-505.5C684,-505.5 690,-511.5 690,-517.5"/>
<polyline fill="none" stroke="black" points="690,-517.5 690,-728.5 "/>
<path fill="none" stroke="black" d="M690,-728.5C690,-734.5 684,-740.5 678,-740.5"/>
<polyline fill="none" stroke="black" points="678,-740.5 496,-740.5 "/>
<path fill="none" stroke="black" d="M496,-740.5C490,-740.5 484,-734.5 484,-728.5"/>
<polyline fill="none" stroke="black" points="484,-728.5 484,-517.5 "/>
<path fill="none" stroke="black" d="M484,-517.5C484,-511.5 490,-505.5 496,-505.5"/>
<text text-anchor="middle" x="587" y="-723.9" font-family="Times Roman,serif" font-size="14.00">UserGroupeUsersController</text>
<polyline fill="none" stroke="black" points="484,-715.5 690,-715.5 "/>
<text text-anchor="start" x="492" y="-698.9" font-family="Times Roman,serif" font-size="14.00">create</text>
<text text-anchor="start" x="492" y="-681.9" font-family="Times Roman,serif" font-size="14.00">destroy</text>
<text text-anchor="start" x="492" y="-664.9" font-family="Times Roman,serif" font-size="14.00">edit</text>
<text text-anchor="start" x="492" y="-647.9" font-family="Times Roman,serif" font-size="14.00">index</text>
<text text-anchor="start" x="492" y="-630.9" font-family="Times Roman,serif" font-size="14.00">new</text>
<text text-anchor="start" x="492" y="-613.9" font-family="Times Roman,serif" font-size="14.00">show</text>
<text text-anchor="start" x="492" y="-596.9" font-family="Times Roman,serif" font-size="14.00">update</text>
<polyline fill="none" stroke="black" points="484,-588.5 690,-588.5 "/>
<polyline fill="none" stroke="black" points="484,-564.5 690,-564.5 "/>
<text text-anchor="start" x="492" y="-547.9" font-family="Times Roman,serif" font-size="14.00">_layout</text>
<text text-anchor="start" x="492" y="-530.9" font-family="Times Roman,serif" font-size="14.00">set_user_groupe_user</text>
<text text-anchor="start" x="492" y="-513.9" font-family="Times Roman,serif" font-size="14.00">user_groupe_user_params</text>
</g>
</g>
</svg>
