<?xml version="1.0" encoding="UTF-8" standalone="no"?>
<!DOCTYPE svg PUBLIC "-//W3C//DTD SVG 1.1//EN"
 "http://www.w3.org/Graphics/SVG/1.1/DTD/svg11.dtd">
<!-- Generated by graphviz version 2.26.3 (20100126.1600)
 -->
<!-- Title: models_diagram Pages: 1 -->
<svg width="1209pt" height="528pt"
 viewBox="0.00 0.00 1209.00 528.00" xmlns="http://www.w3.org/2000/svg" xmlns:xlink="http://www.w3.org/1999/xlink">
<g id="graph1" class="graph" transform="scale(1 1) rotate(0) translate(4 524)">
<title>models_diagram</title>
<polygon fill="none" stroke="none" points="-4,5 -4,-524 1206,-524 1206,5 -4,5"/>
<!-- _diagram_info -->
<g id="node1" class="node"><title>_diagram_info</title>
<text text-anchor="start" x="310" y="-504.3" font-family="Times Roman,serif" font-size="13.00">Models diagram</text>
<text text-anchor="start" x="310" y="-488.3" font-family="Times Roman,serif" font-size="13.00">Date: Sep 16 2015 &#45; 08:53</text>
<text text-anchor="start" x="310" y="-472.3" font-family="Times Roman,serif" font-size="13.00">Migration version: 20150914092513</text>
<text text-anchor="start" x="310" y="-456.3" font-family="Times Roman,serif" font-size="13.00">Generated by RailRoady 1.3.1</text>
<text text-anchor="start" x="310" y="-440.3" font-family="Times Roman,serif" font-size="13.00">http://railroady.prestonlee.com</text>
</g>
<!-- Service -->
<g id="node2" class="node"><title>Service</title>
<ellipse fill="none" stroke="black" cx="636" cy="-306" rx="46.0565" ry="18"/>
<text text-anchor="middle" x="636" y="-301.9" font-family="Times Roman,serif" font-size="14.00">Service</text>
</g>
<!-- App -->
<g id="node17" class="node"><title>App</title>
<ellipse fill="none" stroke="black" cx="312" cy="-234" rx="29.8799" ry="18"/>
<text text-anchor="middle" x="312" y="-229.9" font-family="Times Roman,serif" font-size="14.00">App</text>
</g>
<!-- Service&#45;&gt;App -->
<g id="edge4" class="edge"><title>Service&#45;&gt;App</title>
<path fill="none" stroke="#fea566" d="M591.904,-291.065C588.231,-289.974 584.562,-288.937 581,-288 500.24,-266.758 403.938,-249.285 351.255,-240.381"/>
<polygon fill="#fea566" stroke="#fea566" points="592.008,-291.097 600.24,-298.341 596.787,-292.569 601.565,-294.041 601.565,-294.041 601.565,-294.041 596.787,-292.569 602.89,-289.74 592.008,-291.097 592.008,-291.097"/>
<polygon fill="#fea566" stroke="#fea566" points="351.18,-240.369 342.061,-234.278 346.249,-239.542 341.317,-238.716 341.317,-238.716 341.317,-238.716 346.249,-239.542 340.574,-243.154 351.18,-240.369 351.18,-240.369"/>
</g>
<!-- ServiceInApp -->
<g id="node26" class="node"><title>ServiceInApp</title>
<ellipse fill="none" stroke="black" cx="600" cy="-162" rx="73.8534" ry="18"/>
<text text-anchor="middle" x="600" y="-157.9" font-family="Times Roman,serif" font-size="14.00">ServiceInApp</text>
</g>
<!-- Service&#45;&gt;ServiceInApp -->
<g id="edge2" class="edge"><title>Service&#45;&gt;ServiceInApp</title>
<path fill="none" stroke="#3cbfa5" d="M629.512,-280.048C623.177,-254.707 613.564,-216.256 607.045,-190.179"/>
<ellipse fill="none" stroke="#3cbfa5" cx="630.543" cy="-284.173" rx="4.00001" ry="4.00001"/>
<polygon fill="#3cbfa5" stroke="#3cbfa5" points="606.969,-189.874 608.909,-179.081 605.756,-185.023 604.543,-180.173 604.543,-180.173 604.543,-180.173 605.756,-185.023 600.178,-181.264 606.969,-189.874 606.969,-189.874"/>
</g>
<!-- CatalogService -->
<g id="node3" class="node"><title>CatalogService</title>
<ellipse fill="none" stroke="black" cx="456" cy="-378" rx="82.1898" ry="18"/>
<text text-anchor="middle" x="456" y="-373.9" font-family="Times Roman,serif" font-size="14.00">CatalogService</text>
</g>
<!-- CatalogService&#45;&gt;Service -->
<g id="edge8" class="edge"><title>CatalogService&#45;&gt;Service</title>
<path fill="none" stroke="#23edf9" d="M504.96,-358.416C532.954,-347.219 567.688,-333.325 594.361,-322.656"/>
<polygon fill="#23edf9" stroke="#23edf9" points="504.787,-358.485 493.83,-358.021 500.144,-360.342 495.502,-362.199 495.502,-362.199 495.502,-362.199 500.144,-360.342 497.173,-366.377 504.787,-358.485 504.787,-358.485"/>
<polygon fill="#23edf9" stroke="#23edf9" points="594.51,-322.596 605.467,-323.06 599.153,-320.739 603.795,-318.882 603.795,-318.882 603.795,-318.882 599.153,-320.739 602.124,-314.704 594.51,-322.596 594.51,-322.596"/>
</g>
<!-- ServiceCatalogservice -->
<g id="node20" class="node"><title>ServiceCatalogservice</title>
<ellipse fill="none" stroke="black" cx="456" cy="-306" rx="116.045" ry="18"/>
<text text-anchor="middle" x="456" y="-301.9" font-family="Times Roman,serif" font-size="14.00">ServiceCatalogservice</text>
</g>
<!-- CatalogService&#45;&gt;ServiceCatalogservice -->
<g id="edge6" class="edge"><title>CatalogService&#45;&gt;ServiceCatalogservice</title>
<path fill="none" stroke="#e3e365" d="M456,-351.814C456,-346.278 456,-340.405 456,-334.778"/>
<ellipse fill="none" stroke="#e3e365" cx="456" cy="-355.831" rx="4" ry="4"/>
<polygon fill="#e3e365" stroke="#e3e365" points="456,-334.413 460.5,-324.413 456,-329.413 456,-324.413 456,-324.413 456,-324.413 456,-329.413 451.5,-324.413 456,-334.413 456,-334.413"/>
</g>
<!-- Application -->
<g id="node4" class="node"><title>Application</title>
<ellipse fill="none" stroke="black" cx="620" cy="-378" rx="63.9292" ry="18"/>
<text text-anchor="middle" x="620" y="-373.9" font-family="Times Roman,serif" font-size="14.00">Application</text>
</g>
<!-- CatalogDroit -->
<g id="node5" class="node"><title>CatalogDroit</title>
<ellipse fill="none" stroke="black" cx="810" cy="-306" rx="71.7694" ry="18"/>
<text text-anchor="middle" x="810" y="-301.9" font-family="Times Roman,serif" font-size="14.00">CatalogDroit</text>
</g>
<!-- Droit -->
<g id="node12" class="node"><title>Droit</title>
<ellipse fill="none" stroke="black" cx="774" cy="-234" rx="36.1339" ry="18"/>
<text text-anchor="middle" x="774" y="-229.9" font-family="Times Roman,serif" font-size="14.00">Droit</text>
</g>
<!-- CatalogDroit&#45;&gt;Droit -->
<g id="edge12" class="edge"><title>CatalogDroit&#45;&gt;Droit</title>
<path fill="none" stroke="#36abc7" d="M796.418,-278.835C793.534,-273.067 790.488,-266.977 787.603,-261.207"/>
<polygon fill="#36abc7" stroke="#36abc7" points="796.443,-278.887 796.891,-289.844 798.68,-283.359 800.916,-287.831 800.916,-287.831 800.916,-287.831 798.68,-283.359 804.941,-285.819 796.443,-278.887 796.443,-278.887"/>
<polygon fill="#36abc7" stroke="#36abc7" points="787.429,-260.858 786.982,-249.901 785.193,-256.386 782.957,-251.913 782.957,-251.913 782.957,-251.913 785.193,-256.386 778.932,-253.926 787.429,-260.858 787.429,-260.858"/>
</g>
<!-- DroitCatalogdroit -->
<g id="node14" class="node"><title>DroitCatalogdroit</title>
<ellipse fill="none" stroke="black" cx="787" cy="-162" rx="95.1989" ry="18"/>
<text text-anchor="middle" x="787" y="-157.9" font-family="Times Roman,serif" font-size="14.00">DroitCatalogdroit</text>
</g>
<!-- CatalogDroit&#45;&gt;DroitCatalogdroit -->
<g id="edge10" class="edge"><title>CatalogDroit&#45;&gt;DroitCatalogdroit</title>
<path fill="none" stroke="#59e81d" d="M817.558,-279.879C821.631,-261.686 824.759,-237.013 819,-216 816.377,-206.429 811.571,-196.835 806.467,-188.444"/>
<ellipse fill="none" stroke="#59e81d" cx="816.593" cy="-283.859" rx="4.00001" ry="4.00001"/>
<polygon fill="#59e81d" stroke="#59e81d" points="806.346,-188.258 804.676,-177.42 803.624,-184.064 800.901,-179.871 800.901,-179.871 800.901,-179.871 803.624,-184.064 797.127,-182.321 806.346,-188.258 806.346,-188.258"/>
</g>
<!-- Vm -->
<g id="node6" class="node"><title>Vm</title>
<ellipse fill="none" stroke="black" cx="729" cy="-378" rx="27.1004" ry="18"/>
<text text-anchor="middle" x="729" y="-373.9" font-family="Times Roman,serif" font-size="14.00">Vm</text>
</g>
<!-- Vm&#45;&gt;Service -->
<g id="edge18" class="edge"><title>Vm&#45;&gt;Service</title>
<path fill="none" stroke="#959d73" d="M702.929,-357.816C691.084,-348.645 677.031,-337.766 664.867,-328.349"/>
<polygon fill="#959d73" stroke="#959d73" points="703.161,-357.996 708.314,-367.676 707.115,-361.057 711.069,-364.118 711.069,-364.118 711.069,-364.118 707.115,-361.057 713.823,-360.559 703.161,-357.996 703.161,-357.996"/>
<polygon fill="#959d73" stroke="#959d73" points="664.706,-328.224 659.553,-318.544 660.752,-325.163 656.799,-322.102 656.799,-322.102 656.799,-322.102 660.752,-325.163 654.044,-325.66 664.706,-328.224 664.706,-328.224"/>
</g>
<!-- VmInstallServiceIn -->
<g id="node10" class="node"><title>VmInstallServiceIn</title>
<ellipse fill="none" stroke="black" cx="910" cy="-90" rx="100.758" ry="18"/>
<text text-anchor="middle" x="910" y="-85.9" font-family="Times Roman,serif" font-size="14.00">VmInstallServiceIn</text>
</g>
<!-- Vm&#45;&gt;VmInstallServiceIn -->
<g id="edge14" class="edge"><title>Vm&#45;&gt;VmInstallServiceIn</title>
<path fill="none" stroke="#d36f41" d="M763.119,-371.218C805.75,-362.003 875.059,-344.327 891,-324 938.234,-263.768 926.393,-165.981 916.731,-118.152"/>
<ellipse fill="none" stroke="#d36f41" cx="759.144" cy="-372.062" rx="4.00001" ry="4.00001"/>
<polygon fill="#d36f41" stroke="#d36f41" points="916.693,-117.974 919.003,-107.254 915.647,-113.084 914.602,-108.195 914.602,-108.195 914.602,-108.195 915.647,-113.084 910.202,-109.135 916.693,-117.974 916.693,-117.974"/>
</g>
<!-- Vm&#45;&gt;ServiceInApp -->
<g id="edge16" class="edge"><title>Vm&#45;&gt;ServiceInApp</title>
<path fill="none" stroke="#5d623a" d="M719.339,-350.741C712.43,-332.491 702.368,-308.205 691,-288 670.315,-251.237 640.959,-212.387 621.235,-187.709"/>
<polygon fill="#5d623a" stroke="#5d623a" points="719.367,-350.817 718.622,-361.757 721.105,-355.505 722.842,-360.194 722.842,-360.194 722.842,-360.194 721.105,-355.505 727.062,-358.63 719.367,-350.817 719.367,-350.817"/>
<polygon fill="#5d623a" stroke="#5d623a" points="621.22,-187.69 618.445,-177.081 618.081,-183.798 614.942,-179.906 614.942,-179.906 614.942,-179.906 618.081,-183.798 611.439,-182.731 621.22,-187.69 621.22,-187.69"/>
</g>
<!-- UserAppRole -->
<g id="node7" class="node"><title>UserAppRole</title>
<ellipse fill="none" stroke="black" cx="274" cy="-18" rx="71.7694" ry="18"/>
<text text-anchor="middle" x="274" y="-13.9" font-family="Times Roman,serif" font-size="14.00">UserAppRole</text>
</g>
<!-- EtapeApp -->
<g id="node8" class="node"><title>EtapeApp</title>
<ellipse fill="none" stroke="black" cx="227" cy="-306" rx="57.1737" ry="18"/>
<text text-anchor="middle" x="227" y="-301.9" font-family="Times Roman,serif" font-size="14.00">EtapeApp</text>
</g>
<!-- EtapeApp&#45;&gt;App -->
<g id="edge20" class="edge"><title>EtapeApp&#45;&gt;App</title>
<path fill="none" stroke="#44110c" d="M253.49,-283.562C264.161,-274.523 276.409,-264.148 286.933,-255.234"/>
<ellipse fill="none" stroke="#44110c" cx="250.196" cy="-286.352" rx="4.00002" ry="4.00002"/>
<polygon fill="#44110c" stroke="#44110c" points="286.959,-255.212 297.498,-252.182 290.774,-251.98 294.589,-248.748 294.589,-248.748 294.589,-248.748 290.774,-251.98 291.68,-245.314 286.959,-255.212 286.959,-255.212"/>
</g>
<!-- ReseauService -->
<g id="node9" class="node"><title>ReseauService</title>
<ellipse fill="none" stroke="black" cx="699" cy="-18" rx="80.1057" ry="18"/>
<text text-anchor="middle" x="699" y="-13.9" font-family="Times Roman,serif" font-size="14.00">ReseauService</text>
</g>
<!-- Ip -->
<g id="node11" class="node"><title>Ip</title>
<ellipse fill="none" stroke="black" cx="948" cy="-476" rx="27" ry="18"/>
<text text-anchor="middle" x="948" y="-471.9" font-family="Times Roman,serif" font-size="14.00">Ip</text>
</g>
<!-- Ip&#45;&gt;Vm -->
<g id="edge26" class="edge"><title>Ip&#45;&gt;Vm</title>
<path fill="none" stroke="#865a60" d="M918.072,-462.608C876.234,-443.885 800.707,-410.088 758.889,-391.375"/>
<ellipse fill="none" stroke="#865a60" cx="921.737" cy="-464.248" rx="4.00002" ry="4.00002"/>
<ellipse fill="#865a60" stroke="#865a60" cx="755.14" cy="-389.697" rx="4.00002" ry="4.00002"/>
</g>
<!-- Ip&#45;&gt;VmInstallServiceIn -->
<g id="edge24" class="edge"><title>Ip&#45;&gt;VmInstallServiceIn</title>
<path fill="none" stroke="#5d0eb5" d="M957.332,-450.655C968.583,-417.775 986,-358.414 986,-306 986,-306 986,-306 986,-234 986,-192.602 982.338,-180.057 962,-144 955.653,-132.748 946.411,-122.104 937.472,-113.287"/>
<ellipse fill="none" stroke="#5d0eb5" cx="955.938" cy="-454.647" rx="4.00001" ry="4.00001"/>
<ellipse fill="#5d0eb5" stroke="#5d0eb5" cx="934.573" cy="-110.527" rx="4.00002" ry="4.00002"/>
</g>
<!-- Reseau -->
<g id="node24" class="node"><title>Reseau</title>
<ellipse fill="none" stroke="black" cx="736" cy="-90" rx="45.8622" ry="18"/>
<text text-anchor="middle" x="736" y="-85.9" font-family="Times Roman,serif" font-size="14.00">Reseau</text>
</g>
<!-- Ip&#45;&gt;Reseau -->
<g id="edge22" class="edge"><title>Ip&#45;&gt;Reseau</title>
<path fill="none" stroke="#a22128" d="M948,-449.568C948,-416.137 948,-356.799 948,-306 948,-306 948,-306 948,-234 948,-186.653 928.09,-173.429 891,-144 881.99,-136.851 822.694,-117.241 780.124,-103.731"/>
<ellipse fill="none" stroke="#a22128" cx="948" cy="-453.885" rx="4" ry="4"/>
<ellipse fill="#a22128" stroke="#a22128" cx="776.2" cy="-102.49" rx="4.00001" ry="4.00001"/>
</g>
<!-- Droit&#45;&gt;DroitCatalogdroit -->
<g id="edge32" class="edge"><title>Droit&#45;&gt;DroitCatalogdroit</title>
<path fill="none" stroke="#0df4c5" d="M778.728,-207.814C779.753,-202.136 780.842,-196.104 781.882,-190.346"/>
<ellipse fill="none" stroke="#0df4c5" cx="777.991" cy="-211.895" rx="4.00001" ry="4.00001"/>
<polygon fill="#0df4c5" stroke="#0df4c5" points="781.898,-190.254 788.104,-181.213 782.787,-185.334 783.675,-180.413 783.675,-180.413 783.675,-180.413 782.787,-185.334 779.247,-179.614 781.898,-190.254 781.898,-190.254"/>
</g>
<!-- Role -->
<g id="node18" class="node"><title>Role</title>
<ellipse fill="none" stroke="black" cx="334" cy="-162" rx="31.9646" ry="18"/>
<text text-anchor="middle" x="334" y="-157.9" font-family="Times Roman,serif" font-size="14.00">Role</text>
</g>
<!-- Droit&#45;&gt;Role -->
<g id="edge30" class="edge"><title>Droit&#45;&gt;Role</title>
<path fill="none" stroke="#6f2021" d="M729.394,-226.701C643.737,-212.684 457.411,-182.194 374.821,-168.68"/>
<polygon fill="#6f2021" stroke="#6f2021" points="729.605,-226.735 738.747,-232.791 734.54,-227.543 739.474,-228.35 739.474,-228.35 739.474,-228.35 734.54,-227.543 740.201,-223.909 729.605,-226.735 729.605,-226.735"/>
<polygon fill="#6f2021" stroke="#6f2021" points="374.677,-168.656 365.535,-162.6 369.743,-167.849 364.809,-167.041 364.809,-167.041 364.809,-167.041 369.743,-167.849 364.082,-171.482 374.677,-168.656 374.677,-168.656"/>
</g>
<!-- RoleDroit -->
<g id="node25" class="node"><title>RoleDroit</title>
<ellipse fill="none" stroke="black" cx="396" cy="-90" rx="55.7874" ry="18"/>
<text text-anchor="middle" x="396" y="-85.9" font-family="Times Roman,serif" font-size="14.00">RoleDroit</text>
</g>
<!-- Droit&#45;&gt;RoleDroit -->
<g id="edge28" class="edge"><title>Droit&#45;&gt;RoleDroit</title>
<path fill="none" stroke="#bc9bcc" d="M729.876,-230.538C677.212,-225.115 587.431,-211.733 517,-180 480.487,-163.549 444.408,-134.625 421.281,-114.007"/>
<ellipse fill="none" stroke="#bc9bcc" cx="734.02" cy="-230.947" rx="4" ry="4"/>
<polygon fill="#bc9bcc" stroke="#bc9bcc" points="421.067,-113.814 416.684,-103.762 417.364,-110.454 413.661,-107.095 413.661,-107.095 413.661,-107.095 417.364,-110.454 410.637,-110.428 421.067,-113.814 421.067,-113.814"/>
</g>
<!-- ServiceOutApp -->
<g id="node13" class="node"><title>ServiceOutApp</title>
<ellipse fill="none" stroke="black" cx="552" cy="-90" rx="82.1898" ry="18"/>
<text text-anchor="middle" x="552" y="-85.9" font-family="Times Roman,serif" font-size="14.00">ServiceOutApp</text>
</g>
<!-- GroupeUser -->
<g id="node15" class="node"><title>GroupeUser</title>
<ellipse fill="none" stroke="black" cx="83" cy="-306" rx="68.7933" ry="18"/>
<text text-anchor="middle" x="83" y="-301.9" font-family="Times Roman,serif" font-size="14.00">GroupeUser</text>
</g>
<!-- GroupeUser&#45;&gt;App -->
<g id="edge38" class="edge"><title>GroupeUser&#45;&gt;App</title>
<path fill="none" stroke="#94f682" d="M135.05,-289.635C177.927,-276.154 237.638,-257.38 275.555,-245.459"/>
<ellipse fill="none" stroke="#94f682" cx="130.969" cy="-290.918" rx="4.00001" ry="4.00001"/>
<polygon fill="#94f682" stroke="#94f682" points="275.63,-245.435 286.52,-246.728 280.4,-243.935 285.17,-242.436 285.17,-242.436 285.17,-242.436 280.4,-243.935 283.82,-238.143 275.63,-245.435 275.63,-245.435"/>
</g>
<!-- UserGroupeUser -->
<g id="node22" class="node"><title>UserGroupeUser</title>
<ellipse fill="none" stroke="black" cx="91" cy="-18" rx="91.0296" ry="18"/>
<text text-anchor="middle" x="91" y="-13.9" font-family="Times Roman,serif" font-size="14.00">UserGroupeUser</text>
</g>
<!-- GroupeUser&#45;&gt;UserGroupeUser -->
<g id="edge34" class="edge"><title>GroupeUser&#45;&gt;UserGroupeUser</title>
<path fill="none" stroke="#e97036" d="M83.7295,-279.738C85.2334,-225.598 88.667,-101.986 90.2162,-46.2174"/>
<ellipse fill="none" stroke="#e97036" cx="83.6116" cy="-283.986" rx="4" ry="4"/>
<polygon fill="#e97036" stroke="#e97036" points="90.222,-46.005 94.998,-36.1339 90.3609,-41.007 90.4998,-36.0089 90.4998,-36.0089 90.4998,-36.0089 90.3609,-41.007 86.0015,-35.8839 90.222,-46.005 90.222,-46.005"/>
</g>
<!-- User -->
<g id="node23" class="node"><title>User</title>
<ellipse fill="none" stroke="black" cx="213" cy="-90" rx="32.8565" ry="18"/>
<text text-anchor="middle" x="213" y="-85.9" font-family="Times Roman,serif" font-size="14.00">User</text>
</g>
<!-- GroupeUser&#45;&gt;User -->
<g id="edge36" class="edge"><title>GroupeUser&#45;&gt;User</title>
<path fill="none" stroke="#b8e7a2" d="M99.0477,-279.336C124.189,-237.563 172.55,-157.209 197.408,-115.907"/>
<polygon fill="#b8e7a2" stroke="#b8e7a2" points="99.0168,-279.388 90.0046,-285.635 96.4385,-283.672 93.8601,-287.955 93.8601,-287.955 93.8601,-287.955 96.4385,-283.672 97.7157,-290.276 99.0168,-279.388 99.0168,-279.388"/>
<polygon fill="#b8e7a2" stroke="#b8e7a2" points="197.467,-115.808 206.48,-109.561 200.046,-111.524 202.624,-107.24 202.624,-107.24 202.624,-107.24 200.046,-111.524 198.768,-104.92 197.467,-115.808 197.467,-115.808"/>
</g>
<!-- EtatApp -->
<g id="node16" class="node"><title>EtatApp</title>
<ellipse fill="none" stroke="black" cx="620" cy="-476" rx="50.0315" ry="18"/>
<text text-anchor="middle" x="620" y="-471.9" font-family="Times Roman,serif" font-size="14.00">EtatApp</text>
</g>
<!-- EtatApp&#45;&gt;Application -->
<g id="edge44" class="edge"><title>EtatApp&#45;&gt;Application</title>
<path fill="none" stroke="#8727ef" d="M620,-449.192C620,-435.193 620,-418.13 620,-404.218"/>
<ellipse fill="none" stroke="#8727ef" cx="620" cy="-453.567" rx="4" ry="4"/>
<ellipse fill="#8727ef" stroke="#8727ef" cx="620" cy="-400.019" rx="4" ry="4"/>
</g>
<!-- EtatApp&#45;&gt;Vm -->
<g id="edge42" class="edge"><title>EtatApp&#45;&gt;Vm</title>
<path fill="none" stroke="#ee7f51" d="M645.156,-453.382C663.184,-437.174 687.315,-415.478 705.06,-399.524"/>
<ellipse fill="none" stroke="#ee7f51" cx="641.961" cy="-456.255" rx="4.00002" ry="4.00002"/>
<polygon fill="#ee7f51" stroke="#ee7f51" points="705.282,-399.324 715.727,-395.985 709,-395.981 712.718,-392.638 712.718,-392.638 712.718,-392.638 709,-395.981 709.71,-389.292 705.282,-399.324 705.282,-399.324"/>
</g>
<!-- EtatApp&#45;&gt;App -->
<g id="edge40" class="edge"><title>EtatApp&#45;&gt;App</title>
<path fill="none" stroke="#ee6c32" d="M595.706,-453.919C585.623,-445.86 573.394,-437.405 561,-432 479.815,-396.597 435.205,-449.997 365,-396 323.69,-364.227 314.135,-299.5 312.194,-262.198"/>
<ellipse fill="none" stroke="#ee6c32" cx="598.918" cy="-456.574" rx="4.00002" ry="4.00002"/>
<polygon fill="#ee6c32" stroke="#ee6c32" points="312.187,-262.004 316.316,-251.845 312.003,-257.007 311.819,-252.011 311.819,-252.011 311.819,-252.011 312.003,-257.007 307.322,-252.176 312.187,-262.004 312.187,-262.004"/>
</g>
<!-- App&#45;&gt;UserAppRole -->
<g id="edge46" class="edge"><title>App&#45;&gt;UserAppRole</title>
<path fill="none" stroke="#005ba1" d="M301.831,-208.797C298.564,-199.833 295.219,-189.585 293,-180 282.325,-133.898 277.491,-78.9543 275.42,-46.3566"/>
<ellipse fill="none" stroke="#005ba1" cx="303.244" cy="-212.551" rx="4.00001" ry="4.00001"/>
<polygon fill="#005ba1" stroke="#005ba1" points="275.41,-46.186 279.312,-35.9377 275.115,-41.1947 274.82,-36.2035 274.82,-36.2035 274.82,-36.2035 275.115,-41.1947 270.328,-36.4692 275.41,-46.186 275.41,-46.186"/>
</g>
<!-- App&#45;&gt;ServiceOutApp -->
<g id="edge52" class="edge"><title>App&#45;&gt;ServiceOutApp</title>
<path fill="none" stroke="#2777a3" d="M340.318,-217.009C383.743,-190.954 466.8,-141.12 514.955,-112.227"/>
<ellipse fill="none" stroke="#2777a3" cx="336.728" cy="-219.163" rx="4.00002" ry="4.00002"/>
<polygon fill="#2777a3" stroke="#2777a3" points="515.236,-112.058 526.126,-110.772 519.524,-109.486 523.811,-106.913 523.811,-106.913 523.811,-106.913 519.524,-109.486 521.496,-103.055 515.236,-112.058 515.236,-112.058"/>
</g>
<!-- App&#45;&gt;Role -->
<g id="edge50" class="edge"><title>App&#45;&gt;Role</title>
<path fill="none" stroke="#6db78b" d="M320.39,-206.543C322.099,-200.95 323.897,-195.064 325.606,-189.471"/>
<polygon fill="#6db78b" stroke="#6db78b" points="320.36,-206.639 313.135,-214.887 318.899,-211.42 317.438,-216.202 317.438,-216.202 317.438,-216.202 318.899,-211.42 321.742,-217.517 320.36,-206.639 320.36,-206.639"/>
<polygon fill="#6db78b" stroke="#6db78b" points="325.626,-189.406 332.852,-181.158 327.087,-184.624 328.548,-179.843 328.548,-179.843 328.548,-179.843 327.087,-184.624 324.245,-178.528 325.626,-189.406 325.626,-189.406"/>
</g>
<!-- App&#45;&gt;User -->
<g id="edge48" class="edge"><title>App&#45;&gt;User</title>
<path fill="none" stroke="#3e9e35" d="M288.009,-211.983C278.616,-202.656 268.159,-191.336 260,-180 245.772,-160.233 233.211,-135.587 224.662,-117.086"/>
<polygon fill="#3e9e35" stroke="#3e9e35" points="288.068,-212.04 292.12,-222.23 291.659,-215.519 295.251,-218.998 295.251,-218.998 295.251,-218.998 291.659,-215.519 298.382,-215.765 288.068,-212.04 288.068,-212.04"/>
<polygon fill="#3e9e35" stroke="#3e9e35" points="224.571,-116.884 224.557,-105.918 222.514,-112.327 220.456,-107.77 220.456,-107.77 220.456,-107.77 222.514,-112.327 216.355,-109.622 224.571,-116.884 224.571,-116.884"/>
</g>
<!-- App&#45;&gt;ServiceInApp -->
<g id="edge54" class="edge"><title>App&#45;&gt;ServiceInApp</title>
<path fill="none" stroke="#b00d45" d="M347.894,-225.026C395.541,-213.115 480.401,-191.9 538.392,-177.402"/>
<ellipse fill="none" stroke="#b00d45" cx="343.757" cy="-226.061" rx="4.00001" ry="4.00001"/>
<polygon fill="#b00d45" stroke="#b00d45" points="538.473,-177.382 549.266,-179.322 543.324,-176.169 548.175,-174.956 548.175,-174.956 548.175,-174.956 543.324,-176.169 547.083,-170.591 538.473,-177.382 538.473,-177.382"/>
</g>
<!-- Role&#45;&gt;UserAppRole -->
<g id="edge56" class="edge"><title>Role&#45;&gt;UserAppRole</title>
<path fill="none" stroke="#7c7e6c" d="M323.47,-136.728C312.846,-111.23 296.487,-71.9682 285.522,-45.6522"/>
<ellipse fill="none" stroke="#7c7e6c" cx="325.104" cy="-140.65" rx="4.00001" ry="4.00001"/>
<polygon fill="#7c7e6c" stroke="#7c7e6c" points="285.453,-45.4867 285.76,-34.5252 283.53,-40.8713 281.607,-36.256 281.607,-36.256 281.607,-36.256 283.53,-40.8713 277.453,-37.9868 285.453,-45.4867 285.453,-45.4867"/>
</g>
<!-- Role&#45;&gt;User -->
<g id="edge58" class="edge"><title>Role&#45;&gt;User</title>
<path fill="none" stroke="#5e3ecb" d="M303.191,-143.667C285.204,-132.964 262.562,-119.491 244.464,-108.722"/>
<polygon fill="#5e3ecb" stroke="#5e3ecb" points="303.213,-143.68 309.506,-152.661 307.51,-146.237 311.807,-148.794 311.807,-148.794 311.807,-148.794 307.51,-146.237 314.108,-144.927 303.213,-143.68 303.213,-143.68"/>
<polygon fill="#5e3ecb" stroke="#5e3ecb" points="244.056,-108.48 237.763,-99.4989 239.759,-105.923 235.462,-103.366 235.462,-103.366 235.462,-103.366 239.759,-105.923 233.161,-107.233 244.056,-108.48 244.056,-108.48"/>
</g>
<!-- Role&#45;&gt;RoleDroit -->
<g id="edge60" class="edge"><title>Role&#45;&gt;RoleDroit</title>
<path fill="none" stroke="#c81ebb" d="M353.372,-139.503C360.031,-131.77 367.527,-123.066 374.354,-115.137"/>
<ellipse fill="none" stroke="#c81ebb" cx="350.679" cy="-142.631" rx="4.00002" ry="4.00002"/>
<polygon fill="#c81ebb" stroke="#c81ebb" points="374.378,-115.109 384.314,-110.468 377.641,-111.32 380.904,-107.531 380.904,-107.531 380.904,-107.531 377.641,-111.32 377.494,-104.595 374.378,-115.109 374.378,-115.109"/>
</g>
<!-- Ability -->
<g id="node19" class="node"><title>Ability</title>
<polygon fill="none" stroke="black" points="1053,-494 993,-494 993,-458 1053,-458 1053,-494"/>
<text text-anchor="middle" x="1023" y="-471.9" font-family="Times Roman,serif" font-size="14.00">Ability</text>
</g>
<!-- GroupeApp -->
<g id="node21" class="node"><title>GroupeApp</title>
<ellipse fill="none" stroke="black" cx="1136" cy="-476" rx="64.8203" ry="18"/>
<text text-anchor="middle" x="1136" y="-471.9" font-family="Times Roman,serif" font-size="14.00">GroupeApp</text>
</g>
<!-- User&#45;&gt;UserAppRole -->
<g id="edge62" class="edge"><title>User&#45;&gt;UserAppRole</title>
<path fill="none" stroke="#1605cd" d="M232.324,-67.1909C238.677,-59.6922 245.781,-51.3074 252.299,-43.6145"/>
<ellipse fill="none" stroke="#1605cd" cx="229.734" cy="-70.2488" rx="4.00002" ry="4.00002"/>
<polygon fill="#1605cd" stroke="#1605cd" points="252.614,-43.243 262.511,-38.5221 255.846,-39.4281 259.078,-35.6132 259.078,-35.6132 259.078,-35.6132 255.846,-39.4281 255.644,-32.7043 252.614,-43.243 252.614,-43.243"/>
</g>
<!-- User&#45;&gt;UserGroupeUser -->
<g id="edge64" class="edge"><title>User&#45;&gt;UserGroupeUser</title>
<path fill="none" stroke="#9279c6" d="M183.268,-72.4531C166.885,-62.7844 146.377,-50.6818 128.86,-40.3433"/>
<ellipse fill="none" stroke="#9279c6" cx="186.894" cy="-74.5931" rx="4.00002" ry="4.00002"/>
<polygon fill="#9279c6" stroke="#9279c6" points="128.621,-40.2026 122.296,-31.2446 124.315,-37.6613 120.009,-35.1201 120.009,-35.1201 120.009,-35.1201 124.315,-37.6613 117.722,-38.9955 128.621,-40.2026 128.621,-40.2026"/>
</g>
<!-- Reseau&#45;&gt;ReseauService -->
<g id="edge66" class="edge"><title>Reseau&#45;&gt;ReseauService</title>
<path fill="none" stroke="#e07472" d="M723.097,-64.8922C719.823,-58.5201 716.29,-51.6455 712.965,-45.176"/>
<ellipse fill="none" stroke="#e07472" cx="725.026" cy="-68.6445" rx="4.00002" ry="4.00002"/>
<polygon fill="#e07472" stroke="#e07472" points="712.869,-44.9874 712.3,-34.0363 710.583,-40.5403 708.298,-36.0931 708.298,-36.0931 708.298,-36.0931 710.583,-40.5403 704.295,-38.15 712.869,-44.9874 712.869,-44.9874"/>
</g>
<!-- ServiceInApp&#45;&gt;ReseauService -->
<g id="edge68" class="edge"><title>ServiceInApp&#45;&gt;ReseauService</title>
<path fill="none" stroke="#bc0ffc" d="M620.442,-137.565C627.793,-128.462 635.994,-117.928 643,-108 657.547,-87.3857 672.575,-63.038 683.396,-44.8682"/>
<ellipse fill="none" stroke="#bc0ffc" cx="617.796" cy="-140.811" rx="4.00002" ry="4.00002"/>
<polygon fill="#bc0ffc" stroke="#bc0ffc" points="683.559,-44.5918 692.52,-38.2714 686.102,-40.287 688.646,-35.9823 688.646,-35.9823 688.646,-35.9823 686.102,-40.287 684.772,-33.6931 683.559,-44.5918 683.559,-44.5918"/>
</g>
<!-- ServiceInApp&#45;&gt;VmInstallServiceIn -->
<g id="edge72" class="edge"><title>ServiceInApp&#45;&gt;VmInstallServiceIn</title>
<path fill="none" stroke="#294e07" d="M661.46,-147.725C712.499,-135.871 785.153,-118.997 838.733,-106.552"/>
<ellipse fill="none" stroke="#294e07" cx="657.54" cy="-148.636" rx="4.00001" ry="4.00001"/>
<polygon fill="#294e07" stroke="#294e07" points="838.765,-106.545 849.524,-108.666 843.635,-105.414 848.506,-104.283 848.506,-104.283 848.506,-104.283 843.635,-105.414 847.488,-99.8992 838.765,-106.545 838.765,-106.545"/>
</g>
<!-- ServiceInApp&#45;&gt;ServiceOutApp -->
<g id="edge74" class="edge"><title>ServiceInApp&#45;&gt;ServiceOutApp</title>
<path fill="none" stroke="#4c7b35" d="M583.601,-137.401C579.052,-130.579 574.098,-123.147 569.49,-116.235"/>
<ellipse fill="none" stroke="#4c7b35" cx="585.916" cy="-140.874" rx="4.00002" ry="4.00002"/>
<polygon fill="#4c7b35" stroke="#4c7b35" points="569.442,-116.163 567.639,-105.346 566.669,-112.003 563.895,-107.843 563.895,-107.843 563.895,-107.843 566.669,-112.003 560.151,-110.339 569.442,-116.163 569.442,-116.163"/>
</g>
<!-- ServiceInApp&#45;&gt;Reseau -->
<g id="edge70" class="edge"><title>ServiceInApp&#45;&gt;Reseau</title>
<path fill="none" stroke="#d296da" d="M640.319,-140.654C659.16,-130.68 681.418,-118.896 699.724,-109.205"/>
<polygon fill="#d296da" stroke="#d296da" points="640.039,-140.803 629.096,-141.505 635.62,-143.142 631.201,-145.482 631.201,-145.482 631.201,-145.482 635.62,-143.142 633.307,-149.459 640.039,-140.803 640.039,-140.803"/>
<polygon fill="#d296da" stroke="#d296da" points="699.79,-109.17 710.733,-108.468 704.209,-106.831 708.628,-104.491 708.628,-104.491 708.628,-104.491 704.209,-106.831 706.522,-100.514 699.79,-109.17 699.79,-109.17"/>
</g>
</g>
</svg>
