<?xml version="1.0" encoding="UTF-8" standalone="no"?>
<!DOCTYPE svg PUBLIC "-//W3C//DTD SVG 1.1//EN"
 "http://www.w3.org/Graphics/SVG/1.1/DTD/svg11.dtd">
<!-- Generated by graphviz version 2.26.3 (20100126.1600)
 -->
<!-- Title: models_diagram Pages: 1 -->
<svg width="1406pt" height="408pt"
 viewBox="0.00 0.00 1406.00 408.00" xmlns="http://www.w3.org/2000/svg" xmlns:xlink="http://www.w3.org/1999/xlink">
<g id="graph1" class="graph" transform="scale(1 1) rotate(0) translate(4 404)">
<title>models_diagram</title>
<polygon fill="none" stroke="none" points="-4,5 -4,-404 1403,-404 1403,5 -4,5"/>
<!-- _diagram_info -->
<g id="node1" class="node"><title>_diagram_info</title>
<text text-anchor="start" x="8" y="-384.3" font-family="Times Roman,serif" font-size="13.00">Models diagram</text>
<text text-anchor="start" x="8" y="-368.3" font-family="Times Roman,serif" font-size="13.00">Date: Aug 31 2015 &#45; 10:10</text>
<text text-anchor="start" x="8" y="-352.3" font-family="Times Roman,serif" font-size="13.00">Migration version: 20150708151858</text>
<text text-anchor="start" x="8" y="-336.3" font-family="Times Roman,serif" font-size="13.00">Generated by RailRoady 1.3.1</text>
<text text-anchor="start" x="8" y="-320.3" font-family="Times Roman,serif" font-size="13.00">http://railroady.prestonlee.com</text>
</g>
<!-- Service -->
<g id="node2" class="node"><title>Service</title>
<ellipse fill="none" stroke="black" cx="696" cy="-256" rx="46.0565" ry="18"/>
<text text-anchor="middle" x="696" y="-251.9" font-family="Times Roman,serif" font-size="14.00">Service</text>
</g>
<!-- ServiceInApp -->
<g id="node25" class="node"><title>ServiceInApp</title>
<ellipse fill="none" stroke="black" cx="599" cy="-166" rx="73.8534" ry="18"/>
<text text-anchor="middle" x="599" y="-161.9" font-family="Times Roman,serif" font-size="14.00">ServiceInApp</text>
</g>
<!-- Service&#45;&gt;ServiceInApp -->
<g id="edge2" class="edge"><title>Service&#45;&gt;ServiceInApp</title>
<path fill="none" stroke="#b88b58" d="M669.276,-234.252C663.815,-229.634 658.162,-224.725 653,-220 643.067,-210.908 632.516,-200.531 623.401,-191.32"/>
<ellipse fill="none" stroke="#b88b58" cx="672.491" cy="-236.944" rx="4.00002" ry="4.00002"/>
<polygon fill="#b88b58" stroke="#b88b58" points="623.133,-191.046 619.339,-180.758 619.63,-187.478 616.127,-183.91 616.127,-183.91 616.127,-183.91 619.63,-187.478 612.916,-187.062 623.133,-191.046 623.133,-191.046"/>
</g>
<!-- Apps -->
<g id="node28" class="node"><title>Apps</title>
<ellipse fill="none" stroke="black" cx="473" cy="-166" rx="34.2406" ry="18"/>
<text text-anchor="middle" x="473" y="-161.9" font-family="Times Roman,serif" font-size="14.00">Apps</text>
</g>
<!-- Service&#45;&gt;Apps -->
<g id="edge4" class="edge"><title>Service&#45;&gt;Apps</title>
<path fill="none" stroke="#26cd2e" d="M651.727,-240.329C634.834,-234.195 615.449,-226.967 598,-220 567.571,-207.849 533.45,-193.027 508.555,-181.987"/>
<polygon fill="#26cd2e" stroke="#26cd2e" points="651.947,-240.408 659.824,-248.037 656.65,-242.106 661.352,-243.805 661.352,-243.805 661.352,-243.805 656.65,-242.106 662.881,-239.572 651.947,-240.408 651.947,-240.408"/>
<polygon fill="#26cd2e" stroke="#26cd2e" points="508.295,-181.872 500.988,-173.695 503.727,-179.839 499.159,-177.806 499.159,-177.806 499.159,-177.806 503.727,-179.839 497.329,-181.917 508.295,-181.872 508.295,-181.872"/>
<text text-anchor="middle" x="614" y="-206.9" font-family="Times Roman,serif" font-size="14.00">apps</text>
</g>
<!-- CatalogService -->
<g id="node3" class="node"><title>CatalogService</title>
<ellipse fill="none" stroke="black" cx="604" cy="-356" rx="82.1898" ry="18"/>
<text text-anchor="middle" x="604" y="-351.9" font-family="Times Roman,serif" font-size="14.00">CatalogService</text>
</g>
<!-- CatalogService&#45;&gt;Service -->
<g id="edge8" class="edge"><title>CatalogService&#45;&gt;Service</title>
<path fill="none" stroke="#9643fd" d="M627.65,-330.294C641.744,-314.974 659.537,-295.633 673.436,-280.526"/>
<polygon fill="#9643fd" stroke="#9643fd" points="627.218,-330.763 617.136,-335.075 623.833,-334.442 620.448,-338.122 620.448,-338.122 620.448,-338.122 623.833,-334.442 623.759,-341.169 627.218,-330.763 627.218,-330.763"/>
<polygon fill="#9643fd" stroke="#9643fd" points="673.538,-280.415 683.62,-276.102 676.923,-276.735 680.309,-273.056 680.309,-273.056 680.309,-273.056 676.923,-276.735 676.997,-270.009 673.538,-280.415 673.538,-280.415"/>
</g>
<!-- ServiceCatalogservice -->
<g id="node19" class="node"><title>ServiceCatalogservice</title>
<ellipse fill="none" stroke="black" cx="516" cy="-256" rx="116.045" ry="18"/>
<text text-anchor="middle" x="516" y="-251.9" font-family="Times Roman,serif" font-size="14.00">ServiceCatalogservice</text>
</g>
<!-- CatalogService&#45;&gt;ServiceCatalogservice -->
<g id="edge6" class="edge"><title>CatalogService&#45;&gt;ServiceCatalogservice</title>
<path fill="none" stroke="#e57916" d="M582.759,-331.863C569.42,-316.705 552.231,-297.172 538.636,-281.722"/>
<ellipse fill="none" stroke="#e57916" cx="585.625" cy="-335.119" rx="4.00002" ry="4.00002"/>
<polygon fill="#e57916" stroke="#e57916" points="538.499,-281.568 535.271,-271.088 535.196,-277.814 531.893,-274.06 531.893,-274.06 531.893,-274.06 535.196,-277.814 528.515,-277.033 538.499,-281.568 538.499,-281.568"/>
</g>
<!-- Application -->
<g id="node4" class="node"><title>Application</title>
<ellipse fill="none" stroke="black" cx="318" cy="-256" rx="63.9292" ry="18"/>
<text text-anchor="middle" x="318" y="-251.9" font-family="Times Roman,serif" font-size="14.00">Application</text>
</g>
<!-- CatalogDroit -->
<g id="node5" class="node"><title>CatalogDroit</title>
<ellipse fill="none" stroke="black" cx="1251" cy="-356" rx="71.7694" ry="18"/>
<text text-anchor="middle" x="1251" y="-351.9" font-family="Times Roman,serif" font-size="14.00">CatalogDroit</text>
</g>
<!-- Droit -->
<g id="node12" class="node"><title>Droit</title>
<ellipse fill="none" stroke="black" cx="1195" cy="-256" rx="36.1339" ry="18"/>
<text text-anchor="middle" x="1195" y="-251.9" font-family="Times Roman,serif" font-size="14.00">Droit</text>
</g>
<!-- CatalogDroit&#45;&gt;Droit -->
<g id="edge12" class="edge"><title>CatalogDroit&#45;&gt;Droit</title>
<path fill="none" stroke="#c6baef" d="M1236.09,-329.373C1227.94,-314.822 1217.88,-296.862 1209.76,-282.354"/>
<polygon fill="#c6baef" stroke="#c6baef" points="1236.1,-329.397 1237.06,-340.321 1238.55,-333.759 1240.99,-338.122 1240.99,-338.122 1240.99,-338.122 1238.55,-333.759 1244.91,-335.923 1236.1,-329.397 1236.1,-329.397"/>
<polygon fill="#c6baef" stroke="#c6baef" points="1209.62,-282.113 1208.66,-271.19 1207.18,-277.751 1204.74,-273.388 1204.74,-273.388 1204.74,-273.388 1207.18,-277.751 1200.81,-275.587 1209.62,-282.113 1209.62,-282.113"/>
</g>
<!-- DroitCatalogdroit -->
<g id="node14" class="node"><title>DroitCatalogdroit</title>
<ellipse fill="none" stroke="black" cx="1303" cy="-166" rx="95.1989" ry="18"/>
<text text-anchor="middle" x="1303" y="-161.9" font-family="Times Roman,serif" font-size="14.00">DroitCatalogdroit</text>
</g>
<!-- CatalogDroit&#45;&gt;DroitCatalogdroit -->
<g id="edge10" class="edge"><title>CatalogDroit&#45;&gt;DroitCatalogdroit</title>
<path fill="none" stroke="#3dce3b" d="M1258.12,-329.982C1267.86,-294.412 1285.25,-230.848 1295.29,-194.182"/>
<ellipse fill="none" stroke="#3dce3b" cx="1257.04" cy="-333.924" rx="4.00001" ry="4.00001"/>
<polygon fill="#3dce3b" stroke="#3dce3b" points="1295.39,-193.808 1302.37,-185.351 1296.71,-188.985 1298.03,-184.163 1298.03,-184.163 1298.03,-184.163 1296.71,-188.985 1293.69,-182.975 1295.39,-193.808 1295.39,-193.808"/>
</g>
<!-- Vm -->
<g id="node6" class="node"><title>Vm</title>
<ellipse fill="none" stroke="black" cx="310" cy="-92" rx="27.1004" ry="18"/>
<text text-anchor="middle" x="310" y="-87.9" font-family="Times Roman,serif" font-size="14.00">Vm</text>
</g>
<!-- UserAppRole -->
<g id="node7" class="node"><title>UserAppRole</title>
<ellipse fill="none" stroke="black" cx="1099" cy="-18" rx="71.7694" ry="18"/>
<text text-anchor="middle" x="1099" y="-13.9" font-family="Times Roman,serif" font-size="14.00">UserAppRole</text>
</g>
<!-- EtapeApp -->
<g id="node8" class="node"><title>EtapeApp</title>
<ellipse fill="none" stroke="black" cx="801" cy="-356" rx="57.1737" ry="18"/>
<text text-anchor="middle" x="801" y="-351.9" font-family="Times Roman,serif" font-size="14.00">EtapeApp</text>
</g>
<!-- App -->
<g id="node17" class="node"><title>App</title>
<ellipse fill="none" stroke="black" cx="821" cy="-256" rx="29.8799" ry="18"/>
<text text-anchor="middle" x="821" y="-251.9" font-family="Times Roman,serif" font-size="14.00">App</text>
</g>
<!-- EtapeApp&#45;&gt;App -->
<g id="edge14" class="edge"><title>EtapeApp&#45;&gt;App</title>
<path fill="none" stroke="#8242b9" d="M806.302,-329.491C809.101,-315.493 812.536,-298.318 815.382,-284.091"/>
<ellipse fill="none" stroke="#8242b9" cx="805.453" cy="-333.736" rx="4.00001" ry="4.00001"/>
<polygon fill="#8242b9" stroke="#8242b9" points="815.461,-283.695 821.835,-274.771 816.442,-278.792 817.422,-273.889 817.422,-273.889 817.422,-273.889 816.442,-278.792 813.01,-273.006 815.461,-283.695 815.461,-283.695"/>
</g>
<!-- ReseauService -->
<g id="node9" class="node"><title>ReseauService</title>
<ellipse fill="none" stroke="black" cx="548" cy="-18" rx="80.1057" ry="18"/>
<text text-anchor="middle" x="548" y="-13.9" font-family="Times Roman,serif" font-size="14.00">ReseauService</text>
</g>
<!-- VmInstallServiceIn -->
<g id="node10" class="node"><title>VmInstallServiceIn</title>
<ellipse fill="none" stroke="black" cx="566" cy="-92" rx="100.758" ry="18"/>
<text text-anchor="middle" x="566" y="-87.9" font-family="Times Roman,serif" font-size="14.00">VmInstallServiceIn</text>
</g>
<!-- Ip -->
<g id="node11" class="node"><title>Ip</title>
<ellipse fill="none" stroke="black" cx="394" cy="-166" rx="27" ry="18"/>
<text text-anchor="middle" x="394" y="-161.9" font-family="Times Roman,serif" font-size="14.00">Ip</text>
</g>
<!-- Ip&#45;&gt;Vm -->
<g id="edge20" class="edge"><title>Ip&#45;&gt;Vm</title>
<path fill="none" stroke="#318ff5" d="M371.215,-145.927C359.315,-135.444 344.792,-122.65 332.878,-112.155"/>
<ellipse fill="none" stroke="#318ff5" cx="374.403" cy="-148.736" rx="4.00002" ry="4.00002"/>
<ellipse fill="#318ff5" stroke="#318ff5" cx="329.563" cy="-109.234" rx="4.00002" ry="4.00002"/>
</g>
<!-- Ip&#45;&gt;VmInstallServiceIn -->
<g id="edge18" class="edge"><title>Ip&#45;&gt;VmInstallServiceIn</title>
<path fill="none" stroke="#208432" d="M422.795,-151.371C425.222,-150.208 427.647,-149.071 430,-148 458.344,-135.099 490.549,-121.78 516.503,-111.37"/>
<ellipse fill="none" stroke="#208432" cx="419.174" cy="-153.137" rx="4.00002" ry="4.00002"/>
<ellipse fill="#208432" stroke="#208432" cx="520.282" cy="-109.86" rx="4.00001" ry="4.00001"/>
</g>
<!-- Reseau -->
<g id="node23" class="node"><title>Reseau</title>
<ellipse fill="none" stroke="black" cx="401" cy="-92" rx="45.8622" ry="18"/>
<text text-anchor="middle" x="401" y="-87.9" font-family="Times Roman,serif" font-size="14.00">Reseau</text>
</g>
<!-- Ip&#45;&gt;Reseau -->
<g id="edge16" class="edge"><title>Ip&#45;&gt;Reseau</title>
<path fill="none" stroke="#c232ab" d="M396.508,-139.487C397.157,-132.629 397.855,-125.248 398.503,-118.397"/>
<ellipse fill="none" stroke="#c232ab" cx="396.107" cy="-143.726" rx="4" ry="4"/>
<ellipse fill="#c232ab" stroke="#c232ab" cx="398.913" cy="-114.064" rx="4" ry="4"/>
</g>
<!-- Droit&#45;&gt;DroitCatalogdroit -->
<g id="edge26" class="edge"><title>Droit&#45;&gt;DroitCatalogdroit</title>
<path fill="none" stroke="#4b8c0e" d="M1220.38,-234.849C1236.44,-221.463 1257.26,-204.118 1273.98,-190.186"/>
<ellipse fill="none" stroke="#4b8c0e" cx="1216.89" cy="-237.762" rx="4.00002" ry="4.00002"/>
<polygon fill="#4b8c0e" stroke="#4b8c0e" points="1274.13,-190.055 1284.7,-187.111 1277.97,-186.855 1281.82,-183.654 1281.82,-183.654 1281.82,-183.654 1277.97,-186.855 1278.93,-180.197 1274.13,-190.055 1274.13,-190.055"/>
</g>
<!-- Role -->
<g id="node18" class="node"><title>Role</title>
<ellipse fill="none" stroke="black" cx="1113" cy="-166" rx="31.9646" ry="18"/>
<text text-anchor="middle" x="1113" y="-161.9" font-family="Times Roman,serif" font-size="14.00">Role</text>
</g>
<!-- Droit&#45;&gt;Role -->
<g id="edge24" class="edge"><title>Droit&#45;&gt;Role</title>
<path fill="none" stroke="#59954c" d="M1172.87,-231.709C1160.99,-218.67 1146.41,-202.664 1134.61,-189.714"/>
<polygon fill="#59954c" stroke="#59954c" points="1173.23,-232.101 1176.63,-242.523 1176.59,-235.797 1179.96,-239.493 1179.96,-239.493 1179.96,-239.493 1176.59,-235.797 1183.29,-236.462 1173.23,-232.101 1173.23,-232.101"/>
<polygon fill="#59954c" stroke="#59954c" points="1134.4,-189.492 1131,-179.069 1131.04,-185.796 1127.67,-182.1 1127.67,-182.1 1127.67,-182.1 1131.04,-185.796 1124.34,-185.131 1134.4,-189.492 1134.4,-189.492"/>
</g>
<!-- RoleDroit -->
<g id="node24" class="node"><title>RoleDroit</title>
<ellipse fill="none" stroke="black" cx="1187" cy="-92" rx="55.7874" ry="18"/>
<text text-anchor="middle" x="1187" y="-87.9" font-family="Times Roman,serif" font-size="14.00">RoleDroit</text>
</g>
<!-- Droit&#45;&gt;RoleDroit -->
<g id="edge22" class="edge"><title>Droit&#45;&gt;RoleDroit</title>
<path fill="none" stroke="#890eb4" d="M1193.7,-229.436C1192.24,-199.477 1189.88,-150.95 1188.38,-120.296"/>
<ellipse fill="none" stroke="#890eb4" cx="1193.92" cy="-233.827" rx="4" ry="4"/>
<polygon fill="#890eb4" stroke="#890eb4" points="1188.38,-120.247 1192.39,-110.04 1188.13,-115.253 1187.89,-110.259 1187.89,-110.259 1187.89,-110.259 1188.13,-115.253 1183.4,-110.478 1188.38,-120.247 1188.38,-120.247"/>
</g>
<!-- ServiceOutApp -->
<g id="node13" class="node"><title>ServiceOutApp</title>
<ellipse fill="none" stroke="black" cx="807" cy="-92" rx="82.1898" ry="18"/>
<text text-anchor="middle" x="807" y="-87.9" font-family="Times Roman,serif" font-size="14.00">ServiceOutApp</text>
</g>
<!-- GroupeUser -->
<g id="node15" class="node"><title>GroupeUser</title>
<ellipse fill="none" stroke="black" cx="918" cy="-166" rx="68.7933" ry="18"/>
<text text-anchor="middle" x="918" y="-161.9" font-family="Times Roman,serif" font-size="14.00">GroupeUser</text>
</g>
<!-- UserGroupeUser -->
<g id="node21" class="node"><title>UserGroupeUser</title>
<ellipse fill="none" stroke="black" cx="918" cy="-18" rx="91.0296" ry="18"/>
<text text-anchor="middle" x="918" y="-13.9" font-family="Times Roman,serif" font-size="14.00">UserGroupeUser</text>
</g>
<!-- GroupeUser&#45;&gt;UserGroupeUser -->
<g id="edge28" class="edge"><title>GroupeUser&#45;&gt;UserGroupeUser</title>
<path fill="none" stroke="#b92ec0" d="M918,-139.599C918,-113.441 918,-73.5 918,-46.6013"/>
<ellipse fill="none" stroke="#b92ec0" cx="918" cy="-143.852" rx="4" ry="4"/>
<polygon fill="#b92ec0" stroke="#b92ec0" points="918,-46.2961 922.5,-36.2961 918,-41.2961 918,-36.2961 918,-36.2961 918,-36.2961 918,-41.2961 913.5,-36.2962 918,-46.2961 918,-46.2961"/>
</g>
<!-- User -->
<g id="node22" class="node"><title>User</title>
<ellipse fill="none" stroke="black" cx="992" cy="-92" rx="32.8565" ry="18"/>
<text text-anchor="middle" x="992" y="-87.9" font-family="Times Roman,serif" font-size="14.00">User</text>
</g>
<!-- GroupeUser&#45;&gt;User -->
<g id="edge30" class="edge"><title>GroupeUser&#45;&gt;User</title>
<path fill="none" stroke="#d97578" d="M942.829,-141.171C951.239,-132.761 960.594,-123.406 968.867,-115.133"/>
<polygon fill="#d97578" stroke="#d97578" points="942.608,-141.392 932.355,-145.281 939.073,-144.927 935.537,-148.463 935.537,-148.463 935.537,-148.463 939.073,-144.927 938.719,-151.645 942.608,-141.392 942.608,-141.392"/>
<polygon fill="#d97578" stroke="#d97578" points="969.031,-114.969 979.284,-111.08 972.567,-111.433 976.102,-107.898 976.102,-107.898 976.102,-107.898 972.567,-111.433 972.92,-104.716 969.031,-114.969 969.031,-114.969"/>
</g>
<!-- EtatApp -->
<g id="node16" class="node"><title>EtatApp</title>
<ellipse fill="none" stroke="black" cx="318" cy="-356" rx="50.0315" ry="18"/>
<text text-anchor="middle" x="318" y="-351.9" font-family="Times Roman,serif" font-size="14.00">EtatApp</text>
</g>
<!-- EtatApp&#45;&gt;Application -->
<g id="edge36" class="edge"><title>EtatApp&#45;&gt;Application</title>
<path fill="none" stroke="#21aec2" d="M318,-329.544C318,-314.96 318,-296.914 318,-282.347"/>
<ellipse fill="none" stroke="#21aec2" cx="318" cy="-333.658" rx="4" ry="4"/>
<ellipse fill="#21aec2" stroke="#21aec2" cx="318" cy="-278.225" rx="4" ry="4"/>
</g>
<!-- EtatApp&#45;&gt;Vm -->
<g id="edge34" class="edge"><title>EtatApp&#45;&gt;Vm</title>
<path fill="none" stroke="#916086" d="M289.996,-333.911C273.458,-318.996 254.038,-297.746 245,-274 223.654,-217.92 263.856,-151.37 290.029,-116.349"/>
<ellipse fill="none" stroke="#916086" cx="293.387" cy="-336.875" rx="4.00002" ry="4.00002"/>
<polygon fill="#916086" stroke="#916086" points="290.238,-116.077 299.902,-110.894 293.286,-112.114 296.335,-108.15 296.335,-108.15 296.335,-108.15 293.286,-112.114 292.768,-105.407 290.238,-116.077 290.238,-116.077"/>
</g>
<!-- EtatApp&#45;&gt;App -->
<g id="edge32" class="edge"><title>EtatApp&#45;&gt;App</title>
<path fill="none" stroke="#dc8b05" d="M367.8,-343.845C407.093,-334.477 463.366,-321.552 513,-312 618.187,-291.757 646.126,-295.807 751,-274 761.707,-271.774 773.236,-268.977 783.787,-266.257"/>
<ellipse fill="none" stroke="#dc8b05" cx="363.571" cy="-344.856" rx="4.00001" ry="4.00001"/>
<polygon fill="#dc8b05" stroke="#dc8b05" points="783.872,-266.234 794.688,-268.045 788.708,-264.964 793.544,-263.693 793.544,-263.693 793.544,-263.693 788.708,-264.964 792.4,-259.341 783.872,-266.234 783.872,-266.234"/>
</g>
<!-- App&#45;&gt;UserAppRole -->
<g id="edge38" class="edge"><title>App&#45;&gt;UserAppRole</title>
<path fill="none" stroke="#eaf2eb" d="M858.378,-250.371C899.16,-243.755 961.391,-232.133 982,-220 1047.13,-181.66 1079.45,-91.9959 1092.21,-46.1209"/>
<ellipse fill="none" stroke="#eaf2eb" cx="854.225" cy="-251.034" rx="4.00001" ry="4.00001"/>
<polygon fill="#eaf2eb" stroke="#eaf2eb" points="1092.27,-45.9059 1099.19,-37.4009 1093.55,-41.0743 1094.84,-36.2427 1094.84,-36.2427 1094.84,-36.2427 1093.55,-41.0743 1090.49,-35.0846 1092.27,-45.9059 1092.27,-45.9059"/>
</g>
<!-- App&#45;&gt;ServiceOutApp -->
<g id="edge44" class="edge"><title>App&#45;&gt;ServiceOutApp</title>
<path fill="none" stroke="#546d77" d="M818.732,-229.436C816.175,-199.477 812.032,-150.95 809.416,-120.296"/>
<ellipse fill="none" stroke="#546d77" cx="819.108" cy="-233.837" rx="4" ry="4"/>
<polygon fill="#546d77" stroke="#546d77" points="809.409,-120.223 813.042,-109.876 808.984,-115.241 808.559,-110.259 808.559,-110.259 808.559,-110.259 808.984,-115.241 804.075,-110.642 809.409,-120.223 809.409,-120.223"/>
</g>
<!-- App&#45;&gt;Role -->
<g id="edge42" class="edge"><title>App&#45;&gt;Role</title>
<path fill="none" stroke="#17d2b4" d="M861.628,-253.519C922.141,-249.247 1032.53,-239.069 1067,-220 1079.04,-213.34 1089.33,-202.209 1097.11,-191.777"/>
<polygon fill="#17d2b4" stroke="#17d2b4" points="861.271,-253.543 850.988,-249.735 856.283,-253.884 851.294,-254.225 851.294,-254.225 851.294,-254.225 856.283,-253.884 851.601,-258.714 861.271,-253.543 861.271,-253.543"/>
<polygon fill="#17d2b4" stroke="#17d2b4" points="1097.31,-191.492 1106.72,-185.869 1100.17,-187.393 1103.03,-183.293 1103.03,-183.293 1103.03,-183.293 1100.17,-187.393 1099.34,-180.717 1097.31,-191.492 1097.31,-191.492"/>
</g>
<!-- App&#45;&gt;User -->
<g id="edge40" class="edge"><title>App&#45;&gt;User</title>
<path fill="none" stroke="#b38f92" d="M860.869,-252.141C902.555,-245.742 965.996,-228.788 996,-184 1008.52,-165.31 1006.07,-139.371 1001.32,-119.799"/>
<polygon fill="#b38f92" stroke="#b38f92" points="860.678,-252.168 850.151,-249.095 855.726,-252.86 850.774,-253.552 850.774,-253.552 850.774,-253.552 855.726,-252.86 851.396,-258.008 860.678,-252.168 860.678,-252.168"/>
<polygon fill="#b38f92" stroke="#b38f92" points="1001.26,-119.585 1002.95,-108.75 999.937,-114.763 998.612,-109.942 998.612,-109.942 998.612,-109.942 999.937,-114.763 994.273,-111.134 1001.26,-119.585 1001.26,-119.585"/>
</g>
<!-- App&#45;&gt;ServiceInApp -->
<g id="edge46" class="edge"><title>App&#45;&gt;ServiceInApp</title>
<path fill="none" stroke="#378632" d="M788.311,-242.748C750.922,-227.59 689.373,-202.638 646.649,-185.317"/>
<ellipse fill="none" stroke="#378632" cx="792.258" cy="-244.348" rx="4.00001" ry="4.00001"/>
<polygon fill="#378632" stroke="#378632" points="646.564,-185.283 638.987,-177.355 641.93,-183.404 637.296,-181.526 637.296,-181.526 637.296,-181.526 641.93,-183.404 635.606,-185.696 646.564,-185.283 646.564,-185.283"/>
</g>
<!-- Services -->
<g id="node51" class="node"><title>Services</title>
<ellipse fill="none" stroke="black" cx="742" cy="-166" rx="50.9221" ry="18"/>
<text text-anchor="middle" x="742" y="-161.9" font-family="Times Roman,serif" font-size="14.00">Services</text>
</g>
<!-- App&#45;&gt;Services -->
<g id="edge48" class="edge"><title>App&#45;&gt;Services</title>
<path fill="none" stroke="#4927b9" d="M784.383,-244.328C772.368,-238.769 760.048,-230.889 752,-220 746.542,-212.615 743.775,-203.144 742.447,-194.201"/>
<polygon fill="#4927b9" stroke="#4927b9" points="784.642,-244.436 792.126,-252.451 789.254,-246.369 793.865,-248.301 793.865,-248.301 793.865,-248.301 789.254,-246.369 795.605,-244.151 784.642,-244.436 784.642,-244.436"/>
<polygon fill="#4927b9" stroke="#4927b9" points="742.434,-194.057 745.954,-183.671 741.954,-189.08 741.475,-184.103 741.475,-184.103 741.475,-184.103 741.954,-189.08 736.995,-184.534 742.434,-194.057 742.434,-194.057"/>
<text text-anchor="middle" x="779.5" y="-206.9" font-family="Times Roman,serif" font-size="14.00">services</text>
</g>
<!-- Role&#45;&gt;UserAppRole -->
<g id="edge50" class="edge"><title>Role&#45;&gt;UserAppRole</title>
<path fill="none" stroke="#7b2594" d="M1110.5,-139.599C1108.03,-113.441 1104.25,-73.5 1101.71,-46.6013"/>
<ellipse fill="none" stroke="#7b2594" cx="1110.91" cy="-143.87" rx="4" ry="4"/>
<polygon fill="#7b2594" stroke="#7b2594" points="1101.67,-46.2517 1105.21,-35.8723 1101.2,-41.2739 1100.73,-36.2961 1100.73,-36.2961 1100.73,-36.2961 1101.2,-41.2739 1096.25,-36.72 1101.67,-46.2517 1101.67,-46.2517"/>
</g>
<!-- Role&#45;&gt;User -->
<g id="edge52" class="edge"><title>Role&#45;&gt;User</title>
<path fill="none" stroke="#b5d198" d="M1082.42,-147.3C1064.15,-136.124 1041.01,-121.971 1022.71,-110.781"/>
<polygon fill="#b5d198" stroke="#b5d198" points="1082.56,-147.382 1088.74,-156.438 1086.82,-149.99 1091.09,-152.599 1091.09,-152.599 1091.09,-152.599 1086.82,-149.99 1093.44,-148.76 1082.56,-147.382 1082.56,-147.382"/>
<polygon fill="#b5d198" stroke="#b5d198" points="1022.69,-110.769 1016.51,-101.712 1018.42,-108.16 1014.16,-105.551 1014.16,-105.551 1014.16,-105.551 1018.42,-108.16 1011.81,-109.39 1022.69,-110.769 1022.69,-110.769"/>
</g>
<!-- Role&#45;&gt;RoleDroit -->
<g id="edge54" class="edge"><title>Role&#45;&gt;RoleDroit</title>
<path fill="none" stroke="#52cb21" d="M1134.64,-144.357C1143.39,-135.614 1153.52,-125.48 1162.53,-116.47"/>
<ellipse fill="none" stroke="#52cb21" cx="1131.52" cy="-147.478" rx="4.00002" ry="4.00002"/>
<polygon fill="#52cb21" stroke="#52cb21" points="1162.71,-116.292 1172.96,-112.403 1166.24,-112.757 1169.78,-109.221 1169.78,-109.221 1169.78,-109.221 1166.24,-112.757 1166.6,-106.039 1162.71,-116.292 1162.71,-116.292"/>
</g>
<!-- GroupeApp -->
<g id="node20" class="node"><title>GroupeApp</title>
<ellipse fill="none" stroke="black" cx="941" cy="-356" rx="64.8203" ry="18"/>
<text text-anchor="middle" x="941" y="-351.9" font-family="Times Roman,serif" font-size="14.00">GroupeApp</text>
</g>
<!-- GroupeApp&#45;&gt;App -->
<g id="edge56" class="edge"><title>GroupeApp&#45;&gt;App</title>
<path fill="none" stroke="#84c2ab" d="M914.139,-333.616C893.875,-316.729 866.264,-293.72 846.373,-277.144"/>
<ellipse fill="none" stroke="#84c2ab" cx="917.298" cy="-336.249" rx="4.00002" ry="4.00002"/>
<polygon fill="#84c2ab" stroke="#84c2ab" points="846.312,-277.093 841.511,-267.235 842.471,-273.892 838.63,-270.692 838.63,-270.692 838.63,-270.692 842.471,-273.892 835.749,-274.149 846.312,-277.093 846.312,-277.093"/>
</g>
<!-- User&#45;&gt;UserAppRole -->
<g id="edge58" class="edge"><title>User&#45;&gt;UserAppRole</title>
<path fill="none" stroke="#40bfbf" d="M1016.18,-71.3798C1023.37,-65.5482 1031.36,-59.3399 1039,-54 1045.79,-49.2526 1053.22,-44.4795 1060.47,-40.0314"/>
<ellipse fill="none" stroke="#40bfbf" cx="1012.93" cy="-74.0523" rx="4.00002" ry="4.00002"/>
<polygon fill="#40bfbf" stroke="#40bfbf" points="1060.92,-39.7572 1071.81,-38.4521 1065.21,-37.1773 1069.49,-34.5974 1069.49,-34.5974 1069.49,-34.5974 1065.21,-37.1773 1067.17,-30.7427 1060.92,-39.7572 1060.92,-39.7572"/>
</g>
<!-- User&#45;&gt;UserGroupeUser -->
<g id="edge60" class="edge"><title>User&#45;&gt;UserGroupeUser</title>
<path fill="none" stroke="#9e4dac" d="M970.123,-70.1234C961.589,-61.5887 951.757,-51.7572 942.949,-42.9487"/>
<ellipse fill="none" stroke="#9e4dac" cx="973.115" cy="-73.1147" rx="4.00002" ry="4.00002"/>
<polygon fill="#9e4dac" stroke="#9e4dac" points="942.912,-42.9122 939.023,-32.6591 939.377,-39.3767 935.841,-35.8411 935.841,-35.8411 935.841,-35.8411 939.377,-39.3767 932.659,-39.0231 942.912,-42.9122 942.912,-42.9122"/>
</g>
<!-- Reseau&#45;&gt;ReseauService -->
<g id="edge62" class="edge"><title>Reseau&#45;&gt;ReseauService</title>
<path fill="none" stroke="#3055c2" d="M436.514,-74.1224C457.449,-63.5836 484.054,-50.1906 506.023,-39.1312"/>
<ellipse fill="none" stroke="#3055c2" cx="432.916" cy="-75.9335" rx="4.00002" ry="4.00002"/>
<polygon fill="#3055c2" stroke="#3055c2" points="506.193,-39.0459 517.148,-38.5689 510.659,-36.7977 515.125,-34.5495 515.125,-34.5495 515.125,-34.5495 510.659,-36.7977 513.101,-30.53 506.193,-39.0459 506.193,-39.0459"/>
</g>
<!-- ServiceInApp&#45;&gt;Vm -->
<g id="edge70" class="edge"><title>ServiceInApp&#45;&gt;Vm</title>
<path fill="none" stroke="#dc174a" d="M533.748,-151.761C460.291,-135.701 350.499,-111.595 346,-110 344.123,-109.334 342.218,-108.594 340.314,-107.804"/>
<polygon fill="#dc174a" stroke="#dc174a" points="534.088,-151.835 542.896,-158.367 538.972,-152.903 543.857,-153.97 543.857,-153.97 543.857,-153.97 538.972,-152.903 544.818,-149.574 534.088,-151.835 534.088,-151.835"/>
<polygon fill="#dc174a" stroke="#dc174a" points="340.048,-107.683 332.801,-99.4527 335.495,-105.617 330.942,-103.55 330.942,-103.55 330.942,-103.55 335.495,-105.617 329.082,-107.648 340.048,-107.683 340.048,-107.683"/>
</g>
<!-- ServiceInApp&#45;&gt;ReseauService -->
<g id="edge64" class="edge"><title>ServiceInApp&#45;&gt;ReseauService</title>
<path fill="none" stroke="#fb347b" d="M641.033,-145.722C654.75,-136.811 668.399,-124.927 676,-110 683.26,-95.7422 684.758,-87.3905 676,-74 662.989,-54.1065 641.183,-41.2375 619.221,-32.93"/>
<ellipse fill="none" stroke="#fb347b" cx="637.294" cy="-148.018" rx="4.00002" ry="4.00002"/>
<polygon fill="#fb347b" stroke="#fb347b" points="618.931,-32.8287 610.972,-25.285 614.21,-31.1812 609.489,-29.5337 609.489,-29.5337 609.489,-29.5337 614.21,-31.1812 608.006,-33.7824 618.931,-32.8287 618.931,-32.8287"/>
</g>
<!-- ServiceInApp&#45;&gt;VmInstallServiceIn -->
<g id="edge68" class="edge"><title>ServiceInApp&#45;&gt;VmInstallServiceIn</title>
<path fill="none" stroke="#4a0f55" d="M587.71,-140.683C584.618,-133.75 581.254,-126.206 578.118,-119.173"/>
<ellipse fill="none" stroke="#4a0f55" cx="589.382" cy="-144.433" rx="4.00002" ry="4.00002"/>
<polygon fill="#4a0f55" stroke="#4a0f55" points="578.102,-119.138 578.139,-108.172 576.066,-114.571 574.029,-110.005 574.029,-110.005 574.029,-110.005 576.066,-114.571 569.919,-111.838 578.102,-119.138 578.102,-119.138"/>
</g>
<!-- ServiceInApp&#45;&gt;ServiceOutApp -->
<g id="edge72" class="edge"><title>ServiceInApp&#45;&gt;ServiceOutApp</title>
<path fill="none" stroke="#bab483" d="M652.034,-149.279C670.172,-143.392 690.538,-136.595 709,-130 725.081,-124.255 742.5,-117.633 758.131,-111.542"/>
<ellipse fill="none" stroke="#bab483" cx="648.215" cy="-150.513" rx="4.00001" ry="4.00001"/>
<polygon fill="#bab483" stroke="#bab483" points="758.293,-111.479 769.245,-112.021 762.948,-109.655 767.604,-107.831 767.604,-107.831 767.604,-107.831 762.948,-109.655 765.962,-103.641 758.293,-111.479 758.293,-111.479"/>
</g>
<!-- ServiceInApp&#45;&gt;Reseau -->
<g id="edge66" class="edge"><title>ServiceInApp&#45;&gt;Reseau</title>
<path fill="none" stroke="#01b4ba" d="M548.657,-147.185C516.278,-135.084 474.658,-119.529 443.863,-108.019"/>
<polygon fill="#01b4ba" stroke="#01b4ba" points="549.087,-147.346 556.879,-155.062 553.77,-149.096 558.454,-150.846 558.454,-150.846 558.454,-150.846 553.77,-149.096 560.029,-146.631 549.087,-147.346 549.087,-147.346"/>
<polygon fill="#01b4ba" stroke="#01b4ba" points="443.637,-107.935 435.845,-100.219 438.953,-106.185 434.27,-104.434 434.27,-104.434 434.27,-104.434 438.953,-106.185 432.694,-108.649 443.637,-107.935 443.637,-107.935"/>
</g>
</g>
</svg>
